<svg width="40" height="40" viewBox="0 0 40 40" fill="none" xmlns="http://www.w3.org/2000/svg">
<g clip-path="url(#clip0_968_6416)">
<path d="M2 4C2 2.89543 2.89543 2 4 2H30C31.1046 2 32 2.89543 32 4V18C32 18.5523 32.4477 19 33 19C33.5523 19 34 18.5523 34 18V3C34 1.39146 32.6085 0 31 0H3C1.39146 0 0 1.39146 0 3V31C0 32.6085 1.39146 34 3 34H18C18.5523 34 19 33.5523 19 33C19 32.4477 18.5523 32 18 32H4C2.89543 32 2 31.1046 2 30V4Z" fill="#D2D2D2"/>
<path d="M11.7391 16.9525C11.2584 16.6192 10.5955 16.7678 10.3032 17.2745L7.86522 21.5003C7.48061 22.1669 7.96175 23 8.73141 23H25.2686C26.0382 23 26.5194 22.1669 26.1348 21.5003L20.8778 12.3882C20.5082 11.7475 19.595 11.7159 19.182 12.3295L14.6923 19L11.7391 16.9525Z" fill="#D2D2D2"/>
<path d="M34.0002 27C34.0002 26.4477 33.5524 26 33.0001 26C32.4479 26 32.0002 26.4477 32.0001 27L32 32H27.0001C26.4478 32 26 32.4478 26 33.0001C26 33.5524 26.4478 34.0002 27.0001 34.0002H32.0002V39.0002C32.0002 39.5524 32.4479 40.0002 33.0002 40.0002C33.5524 40.0002 34.0002 39.5524 34.0002 39.0002V34.0002H39C39.5524 34.0002 40.0001 33.5524 40.0001 33C40 32.4477 39.5523 32 39 32H34.0002V27Z" fill="#D2D2D2"/>
</g>
<defs>
<clipPath id="clip0_968_6416">
<rect width="40.0002" height="40.0002" fill="white"/>
</clipPath>
</defs>
</svg>
