<svg width="13" height="14" viewBox="0 0 13 14" fill="none" xmlns="http://www.w3.org/2000/svg">
<path d="M11.6404 1.28113C9.82885 -0.427045 6.87885 -0.427045 5.06924 1.28113L0.0500178 6.01036C0.0173256 6.04119 1.77786e-05 6.0829 1.77786e-05 6.12642C1.77786e-05 6.16994 0.0173256 6.21164 0.0500178 6.24247L0.759632 6.9116C0.792068 6.94205 0.835976 6.95915 0.881747 6.95915C0.927518 6.95915 0.971426 6.94205 1.00386 6.9116L6.02308 2.18237C6.64616 1.59484 7.475 1.27207 8.35577 1.27207C9.23654 1.27207 10.0654 1.59484 10.6865 2.18237C11.3096 2.7699 11.6519 3.55145 11.6519 4.38016C11.6519 5.21067 11.3096 5.99042 10.6865 6.57794L5.57116 11.3996L4.74232 12.1812C3.96732 12.912 2.70771 12.912 1.93271 12.1812C1.55771 11.8276 1.35194 11.3579 1.35194 10.8575C1.35194 10.357 1.55771 9.88731 1.93271 9.53371L7.0077 4.75008C7.13654 4.6304 7.30577 4.56331 7.48654 4.56331H7.48847C7.66923 4.56331 7.83654 4.6304 7.96346 4.75008C8.09231 4.87158 8.16154 5.03115 8.16154 5.20161C8.16154 5.37025 8.09039 5.52982 7.96346 5.6495L3.8154 9.55728C3.7827 9.58811 3.7654 9.62982 3.7654 9.67334C3.7654 9.71686 3.7827 9.75856 3.8154 9.78939L4.52501 10.4585C4.55745 10.489 4.60135 10.5061 4.64712 10.5061C4.6929 10.5061 4.7368 10.489 4.76924 10.4585L8.91539 6.54893C9.29808 6.18807 9.50769 5.70935 9.50769 5.19979C9.50769 4.69024 9.29615 4.2097 8.91539 3.85066C8.125 3.10537 6.84039 3.10718 6.05001 3.85066L5.5577 4.31669L0.976939 8.63428C0.666037 8.92573 0.419591 9.27248 0.251893 9.65442C0.0841947 10.0364 -0.0014186 10.4459 1.77786e-05 10.8593C1.77786e-05 11.6989 0.348094 12.4877 0.976939 13.0806C1.62886 13.6935 2.48271 14 3.33655 14C4.19039 14 5.04424 13.6935 5.69424 13.0806L11.6404 7.47736C12.5154 6.65048 13 5.54977 13 4.38016C13.0019 3.20873 12.5173 2.10802 11.6404 1.28113Z" fill="#777777"/>
</svg>
