<svg width="22" height="16" viewBox="0 0 22 16" fill="none" xmlns="http://www.w3.org/2000/svg">
<path d="M20.8389 7H1.16111C0.519847 7 0 7.42533 0 7.95V8.05C0 8.57467 0.519847 9 1.16111 9H20.8389C21.4802 9 22 8.57467 22 8.05V7.95C22 7.42533 21.4802 7 20.8389 7Z" fill="#3C4157"/>
<path d="M20.8389 14H1.16111C0.519847 14 0 14.4253 0 14.95V15.05C0 15.5747 0.519847 16 1.16111 16H20.8389C21.4802 16 22 15.5747 22 15.05V14.95C22 14.4253 21.4802 14 20.8389 14Z" fill="#3C4157"/>
<path d="M20.8389 0H1.16111C0.519847 0 0 0.425329 0 0.95V1.05C0 1.57467 0.519847 2 1.16111 2H20.8389C21.4802 2 22 1.57467 22 1.05V0.95C22 0.425329 21.4802 0 20.8389 0Z" fill="#3C4157"/>
</svg>
