<svg width="17" height="17" viewBox="0 0 17 17" fill="none" xmlns="http://www.w3.org/2000/svg">
<g clip-path="url(#clip0_968_6373)">
<path d="M16.0469 1.77344H12.6016V0.460938C12.6016 0.370703 12.5277 0.296875 12.4375 0.296875H11.2891C11.1988 0.296875 11.125 0.370703 11.125 0.460938V1.77344H5.875V0.460938C5.875 0.370703 5.80117 0.296875 5.71094 0.296875H4.5625C4.47227 0.296875 4.39844 0.370703 4.39844 0.460938V1.77344H0.953125C0.590137 1.77344 0.296875 2.0667 0.296875 2.42969V16.0469C0.296875 16.4099 0.590137 16.7031 0.953125 16.7031H16.0469C16.4099 16.7031 16.7031 16.4099 16.7031 16.0469V2.42969C16.7031 2.0667 16.4099 1.77344 16.0469 1.77344ZM15.2266 15.2266H1.77344V7.43359H15.2266V15.2266ZM1.77344 6.03906V3.25H4.39844V4.23438C4.39844 4.32461 4.47227 4.39844 4.5625 4.39844H5.71094C5.80117 4.39844 5.875 4.32461 5.875 4.23438V3.25H11.125V4.23438C11.125 4.32461 11.1988 4.39844 11.2891 4.39844H12.4375C12.5277 4.39844 12.6016 4.32461 12.6016 4.23438V3.25H15.2266V6.03906H1.77344Z" fill="#777777"/>
</g>
<defs>
<clipPath id="clip0_968_6373">
<rect width="17" height="17" fill="white"/>
</clipPath>
</defs>
</svg>
