<svg width="20" height="20" viewBox="0 0 20 20" fill="none" xmlns="http://www.w3.org/2000/svg">
<g clip-path="url(#clip0_264_2031)">
<path d="M10 20C15.5228 20 20 15.5228 20 10C20 4.47715 15.5228 0 10 0C4.47715 0 0 4.47715 0 10C0 15.5228 4.47715 20 10 20Z" fill="#BBBBBB"/>
<path d="M13.5333 6.20001C13.8333 6.60001 13.9667 7.10001 13.9667 7.66667C13.9667 8.26667 13.8333 8.73334 13.5333 9.10001C13.3667 9.30001 13.1333 9.50001 12.8 9.66667C13.3 9.83334 13.6667 10.1333 13.9333 10.5333C14.2 10.9333 14.3 11.4 14.3 11.9667C14.3 12.5333 14.1667 13.0667 13.8667 13.5C13.7 13.8 13.4667 14.0667 13.1667 14.2667C12.8667 14.5 12.5 14.6667 12.0667 14.7667C11.6333 14.8667 11.2 14.9 10.7 14.9H6.36667V5.23334H11.0333C12.2333 5.16667 13.0667 5.53334 13.5333 6.20001M8.3 6.83334V8.96667H10.6667C11.1 8.96667 11.4333 8.90001 11.7 8.73334C11.9667 8.56667 12.1 8.30001 12.1 7.90001C12.1 7.43334 11.9333 7.16667 11.5667 7.00001C11.2667 6.90001 10.9 6.83334 10.4333 6.83334H8.3M8.3 10.5667V13.1333H10.6333C11.0667 13.1333 11.3667 13.0667 11.6 12.9667C12.0333 12.7667 12.2333 12.3667 12.2333 11.7667C12.2333 11.2667 12.0333 10.9333 11.6333 10.7333C11.4 10.6333 11.0667 10.5667 10.6667 10.5667H8.3Z" fill="white"/>
</g>
<defs>
<clipPath id="clip0_264_2031">
<rect width="20" height="20" fill="white"/>
</clipPath>
</defs>
</svg>
