<svg width="22" height="16" viewBox="0 0 22 16" fill="none" xmlns="http://www.w3.org/2000/svg">
<g clip-path="url(#clip0_264_2029)">
<path d="M11.0708 0H11.1932C12.3235 0.00427084 18.0508 0.0469795 19.595 0.476911C20.0618 0.608123 20.4872 0.863881 20.8286 1.21863C21.1701 1.57337 21.4156 2.01468 21.5407 2.49844C21.6796 3.03942 21.7772 3.75549 21.8432 4.49435L21.857 4.64241L21.8872 5.01255L21.8982 5.1606C21.9876 6.46178 21.9986 7.6804 22 7.94661V8.05339C21.9986 8.32957 21.9862 9.63075 21.8872 10.986L21.8762 11.1355L21.8639 11.2836C21.7951 12.0979 21.6934 12.9065 21.5407 13.5016C21.416 13.9855 21.1706 14.427 20.8291 14.7818C20.4876 15.1366 20.062 15.3923 19.595 15.5231C17.9999 15.9673 11.9371 15.9986 11.0969 16H10.9017C10.4768 16 8.71942 15.9915 6.8768 15.926L6.64304 15.9174L6.52341 15.9117L6.28827 15.9018L6.05313 15.8918C4.52678 15.822 3.07332 15.7096 2.40365 15.5217C1.93679 15.391 1.51131 15.1356 1.16982 14.781C0.828329 14.4265 0.582826 13.9853 0.457904 13.5016C0.305269 12.9079 0.203513 12.0979 0.134758 11.2836L0.123758 11.1341L0.112757 10.986C0.0448933 10.0214 0.00728777 9.05472 0 8.08755L0 7.91245C0.00275017 7.60637 0.0137509 6.54862 0.0880055 5.38126L0.0976311 5.23463L0.101756 5.1606L0.112757 5.01255L0.143009 4.64241L0.15676 4.49435C0.222764 3.75549 0.320395 3.03799 0.459279 2.49844C0.58399 2.01448 0.8294 1.57297 1.1709 1.21816C1.51241 0.863356 1.938 0.60773 2.40503 0.476911C3.07469 0.291841 4.52816 0.177952 6.0545 0.106771L6.28827 0.0968057L6.52478 0.0882643L6.64304 0.0839934L6.87818 0.0740282C8.18686 0.0304294 9.49608 0.00622527 10.8054 0.00142368H11.0708V0ZM8.80055 4.5698V11.4288L14.5168 8.00071L8.80055 4.5698Z" fill="#BBBBBB"/>
</g>
<defs>
<clipPath id="clip0_264_2029">
<rect width="22" height="16" fill="white"/>
</clipPath>
</defs>
</svg>
