<svg width="71" height="30" viewBox="0 0 71 30" fill="none" xmlns="http://www.w3.org/2000/svg">
<path d="M3.92766 4.43994H0.475851V21.0224H3.92766V4.43994Z" fill="#C6C6C6"/>
<path d="M13.6184 13.47H7.49277V16.2825H13.6184V13.47Z" fill="#C6C6C6"/>
<path d="M42.2526 8.72998C40.9383 8.72998 39.4579 8.92498 37.8566 9.29998L37.6904 9.33748V12.1575L37.9623 12.09C39.5334 11.715 40.9761 11.5275 42.2526 11.5275C44.3372 11.5275 44.3372 12.5625 44.3372 12.9V13.53C43.6046 13.41 42.8568 13.35 42.1241 13.35C38.5364 13.35 36.7161 14.61 36.7161 17.1C36.7161 19.695 38.2645 21.0075 41.316 21.0075C42.5471 21.0075 43.6877 20.67 44.7224 20.01L45.727 21.0075H47.789V12.855C47.7966 10.1175 45.931 8.72998 42.2526 8.72998ZM44.3448 16.0125V17.6175C43.5517 18.165 42.6906 18.435 41.7767 18.435C40.689 18.435 40.1754 18 40.1754 17.0775C40.1754 16.77 40.1754 15.825 42.1241 15.825C42.9097 15.825 43.6499 15.8925 44.3448 16.0125Z" fill="#C6C6C6"/>
<path d="M53.8165 6.81006H51.1955V17.6101C51.1955 19.8751 52.2832 21.0226 54.4207 21.0226H57.3287V18.2101H55.8785C55.3573 18.2101 54.6549 18.0601 54.6549 16.7701V11.5351H57.3287V8.73006H54.2772L53.8165 6.81006Z" fill="#C6C6C6"/>
<path d="M65.3427 8.72998C61.4754 8.72998 59.5191 10.755 59.5191 14.7375C59.5191 18.9075 61.7776 21.0225 66.2339 21.0225C67.7521 21.0225 69.0588 20.91 70.1238 20.6775L70.2976 20.64V17.8275L70.0332 17.88C68.8473 18.105 67.6464 18.2175 66.4605 18.2175C64.2323 18.2175 63.0918 17.5425 62.9861 16.1475H70.8716L70.8943 15.96C70.9622 15.465 71 14.9625 71 14.46C71 10.6575 69.0966 8.72998 65.3427 8.72998ZM67.6237 13.6275H63.0012C63.1824 12.21 63.9529 11.5125 65.3502 11.5125C66.8533 11.5125 67.586 12.1875 67.6237 13.6275Z" fill="#C6C6C6"/>
<path d="M29.6614 4.32C30.8623 4.32 31.8367 3.3525 31.8367 2.16C31.8367 0.9675 30.8623 0 29.6614 0C28.4604 0 27.4861 0.9675 27.4861 2.16C27.4861 3.3525 28.4604 4.32 29.6614 4.32Z" fill="#C6C6C6"/>
<path d="M28.0148 5.87992C27.5314 8.77492 26.134 12.0074 24.986 12.0074V15.3149C26.8289 15.3149 28.1734 14.1299 29.1327 12.6074L30.6509 21.0299H34.0347L31.3004 5.85742L28.0148 5.87992Z" fill="#C6C6C6"/>
<path d="M20.3181 4.32C21.519 4.32 22.4934 3.3525 22.4934 2.16C22.4934 0.9675 21.519 0 20.3181 0C19.1171 0 18.1428 0.9675 18.1428 2.16C18.1428 3.3525 19.1171 4.32 20.3181 4.32Z" fill="#C6C6C6"/>
<path d="M24.986 15.3151V12.0076C23.8983 12.0076 22.4632 8.7001 21.9571 5.8576L18.679 5.8501L15.9448 21.0301H19.3286L20.8544 12.5551C21.8136 14.1001 23.1581 15.3151 24.986 15.3151Z" fill="#C6C6C6"/>
<path d="M1.39734 27.7426C0.604255 27.7426 0 27.1951 0 26.4376C0 25.6726 0.604255 25.1326 1.39734 25.1326C2.19043 25.1326 2.78713 25.6726 2.78713 26.4376C2.77957 27.1951 2.18287 27.7426 1.39734 27.7426ZM1.39734 27.2326C1.85809 27.2326 2.20553 26.9176 2.20553 26.4451C2.20553 25.9651 1.85809 25.6576 1.39734 25.6576C0.936596 25.6576 0.589149 25.9651 0.589149 26.4451C0.589149 26.9101 0.929043 27.2326 1.39734 27.2326ZM4.3733 29.4151V29.9026H0.793085V28.1926H1.39734V29.4151H4.3733ZM4.22223 28.5751H3.62553V24.7876H4.22223V28.5751Z" fill="#C6C6C6"/>
<path d="M8.65596 27.9899C8.06681 27.8024 7.62117 27.4274 7.38702 26.9324C7.15287 27.4649 6.72234 27.8774 6.11053 28.0799L5.81596 27.6149C6.62415 27.3449 7.07734 26.7074 7.07734 26.0249V25.9274H5.97457V25.4474H7.07734V24.8249H7.68159V25.4474H8.77681V25.9274H7.67404V26.0249C7.67404 26.6624 8.13479 27.2699 8.94298 27.5174L8.65596 27.9899ZM10.3026 29.4149V29.9024H6.77521V28.3349H7.37191V29.4224H10.3026V29.4149ZM9.57745 26.3549V24.7949H10.1741V28.6649H9.57745V26.8424H8.61064V26.3549H9.57745Z" fill="#C6C6C6"/>
<path d="M16.7454 25.3424C16.7454 26.8949 16.1185 28.2074 14.3208 29.0774L14.0036 28.6049C15.3783 27.9449 16.0279 27.0299 16.1336 25.8299H14.2604V25.3424H16.7454ZM18.2863 29.9999H17.6896V24.7949H18.2863V29.9999Z" fill="#C6C6C6"/>
<path d="M22.5538 27.3751V27.8101H24.0343V29.0701H21.0507V29.4976H24.1853V29.9551H20.454V28.6501H23.4451V28.2676H20.4389V27.8176H21.942V27.3751H19.8724V26.9026H24.6234V27.3751H22.5538ZM24.1778 26.6176C23.3091 26.5126 22.5916 26.1601 22.2517 25.6351C21.9118 26.1526 21.2018 26.5126 20.3256 26.6176L20.1217 26.1601C21.1716 26.0551 21.942 25.5451 21.942 24.9601V24.8101H22.5614V24.9601C22.5614 25.5451 23.3318 26.0551 24.3817 26.1601L24.1778 26.6176Z" fill="#C6C6C6"/>
<path d="M28.2943 27.3075C28.0526 27.5925 27.6749 27.765 27.2444 27.7575C26.4664 27.7575 25.8772 27.2025 25.8772 26.4375C25.8772 25.6725 26.4664 25.1175 27.2444 25.1175C27.6749 25.1175 28.045 25.29 28.2943 25.5675H29.5556V24.8025H30.1523V28.635H29.5556V27.315H28.2943V27.3075ZM27.2519 27.24C27.6976 27.24 28.045 26.9175 28.045 26.43C28.045 25.9575 27.7051 25.635 27.2519 25.635C26.7912 25.635 26.4513 25.9575 26.4513 26.43C26.4513 26.9175 26.7912 27.24 27.2519 27.24ZM30.2883 29.415V29.9025H26.7534V28.245H27.3501V29.4225H30.2883V29.415ZM28.5511 26.0475C28.5888 26.1675 28.6115 26.295 28.6115 26.43C28.6115 26.5725 28.5964 26.6925 28.5511 26.82H29.5556V26.0475H28.5511Z" fill="#C6C6C6"/>
<path d="M34.5861 24.9149H35.145V29.7449H34.5861V27.9899H33.725V27.5024H34.5861V26.6774H33.8156C33.5739 27.5549 33.0226 28.3124 32.0406 28.8899L31.7007 28.4699C32.7809 27.8174 33.302 26.9699 33.3927 25.9049H31.9576V25.4249H33.9818C33.9818 25.6874 33.9667 25.9499 33.9214 26.1899H34.5861V24.9149ZM36.2251 29.9999H35.6511V24.7949H36.2251V29.9999Z" fill="#C6C6C6"/>
<path d="M44.6016 27.1724V27.6524H39.8733V27.1724H41.7314V26.2124H42.3356V27.1724H44.6016ZM44.0578 29.0249C44.0578 29.6324 43.3402 29.9999 42.2223 29.9999C41.0894 29.9999 40.3718 29.6324 40.3718 29.0249C40.3718 28.4249 41.0894 28.0574 42.2223 28.0574C43.3402 28.0574 44.0578 28.4249 44.0578 29.0249ZM43.2949 26.7974C43.4309 26.2874 43.4309 25.9124 43.4309 25.5149H40.4247V25.0349H44.0276V25.4774C44.0276 25.8899 44.0276 26.3249 43.884 26.8649L43.2949 26.7974ZM43.4611 29.0249C43.4611 28.7024 42.9928 28.5149 42.2223 28.5149C41.4444 28.5149 40.9685 28.7024 40.9685 29.0249C40.9685 29.3549 41.4444 29.5424 42.2223 29.5424C42.9928 29.5424 43.4611 29.3549 43.4611 29.0249Z" fill="#C6C6C6"/>
<path d="M50.5309 27.1724V27.6524H45.8026V27.1724H47.6606V26.2124H48.2649V27.1724H50.5309ZM49.987 29.0249C49.987 29.6324 49.2695 29.9999 48.1516 29.9999C47.0186 29.9999 46.3011 29.6324 46.3011 29.0249C46.3011 28.4249 47.0186 28.0574 48.1516 28.0574C49.2619 28.0574 49.987 28.4249 49.987 29.0249ZM49.2166 26.7974C49.3526 26.2874 49.3525 25.9124 49.3525 25.5149H46.3464V25.0349H49.9493V25.4774C49.9493 25.8899 49.9493 26.3249 49.8057 26.8649L49.2166 26.7974ZM49.3828 29.0249C49.3828 28.7024 48.9145 28.5149 48.144 28.5149C47.3661 28.5149 46.8902 28.7024 46.8902 29.0249C46.8902 29.3549 47.3661 29.5424 48.144 29.5424C48.922 29.5424 49.3828 29.3549 49.3828 29.0249Z" fill="#C6C6C6"/>
<path d="M58.6732 27.525H53.9222V27.0525H58.6732V27.525ZM55.093 25.395H54.3528V24.9375H58.2427V25.395H57.5024V26.235H58.2124V26.685H54.383V26.235H55.1005V25.395H55.093ZM55.093 29.5125H58.2276V29.955H54.4963V28.71H57.4873V28.35H54.4812V27.915H58.0689V29.13H55.0854V29.5125H55.093ZM56.8982 25.395H55.6897V26.235H56.8982V25.395Z" fill="#C6C6C6"/>
<path d="M62.3591 27.6674C61.7322 27.7874 61.196 27.8174 60.4331 27.8174H60.0781V26.2499H61.4754V25.6499H60.0705V25.1849H62.057V26.6999H60.6597V27.3449C61.2866 27.3374 61.7624 27.3074 62.3063 27.2024L62.3591 27.6674ZM62.8199 28.1999C62.8199 28.8149 63.5374 29.3849 64.5496 29.5199L64.3154 29.9849C63.4997 29.8499 62.8425 29.4749 62.5178 28.9499C62.193 29.4749 61.5358 29.8499 60.7201 29.9849L60.486 29.5199C61.4981 29.3849 62.2081 28.8149 62.2081 28.1999V28.0874H62.8048V28.1999H62.8199ZM63.1447 27.8774H62.5857V24.8924H63.1447V26.1074H63.7263V24.7949H64.2928V28.3199H63.7263V26.5949H63.1447V27.8774Z" fill="#C6C6C6"/>
<path d="M70.5242 27.3675V27.84H65.7656V27.3675H67.8428V26.8575H66.2264V26.3775H66.9439V25.4175H66.2037V24.9375H70.0861V25.4175H69.3459V26.3775H70.0559V26.8575H68.447V27.3675H70.5242ZM66.3397 28.2675H69.9426V29.9325H66.3397V28.2675ZM66.9364 29.46H69.361V28.74H66.9364V29.46ZM67.5406 26.3775H68.7491V25.4175H67.5406V26.3775Z" fill="#C6C6C6"/>
</svg>
