<svg width="81" height="34" viewBox="0 0 81 34" fill="none" xmlns="http://www.w3.org/2000/svg">
<g clip-path="url(#clip0_169_42)">
<path d="M4.45135 5.032H0.539297V23.8255H4.45135V5.032Z" fill="#48383E"/>
<path d="M15.4342 15.266H8.4918V18.4535H15.4342V15.266Z" fill="#48383E"/>
<path d="M47.8862 9.894C46.3967 9.894 44.7189 10.115 42.9041 10.54L42.7158 10.5825V13.7785L43.024 13.702C44.8045 13.277 46.4395 13.0645 47.8862 13.0645C50.2489 13.0645 50.2489 14.2375 50.2489 14.62V15.334C49.4185 15.198 48.5711 15.13 47.7407 15.13C43.6746 15.13 41.6115 16.558 41.6115 19.38C41.6115 22.321 43.3664 23.8085 46.8248 23.8085C48.2201 23.8085 49.5127 23.426 50.6854 22.678L51.824 23.8085H54.1609V14.569C54.1695 11.4665 52.0551 9.894 47.8862 9.894ZM50.2574 18.1475V19.9665C49.3586 20.587 48.3827 20.893 47.3469 20.893C46.1143 20.893 45.5322 20.4 45.5322 19.3545C45.5322 19.006 45.5322 17.935 47.7407 17.935C48.631 17.935 49.4699 18.0115 50.2574 18.1475Z" fill="#48383E"/>
<path d="M60.992 7.718H58.0216V19.958C58.0216 22.525 59.2543 23.8255 61.6769 23.8255H64.9726V20.638H63.329C62.7383 20.638 61.9422 20.468 61.9422 19.006V13.073H64.9726V9.894H61.5142L60.992 7.718Z" fill="#48383E"/>
<path d="M74.055 9.894C69.6722 9.894 67.455 12.189 67.455 16.7025C67.455 21.4285 70.0146 23.8255 75.0651 23.8255C76.7857 23.8255 78.2667 23.698 79.4737 23.4345L79.6706 23.392V20.2045L79.371 20.264C78.027 20.519 76.6659 20.6465 75.3219 20.6465C72.7967 20.6465 71.5041 19.8815 71.3842 18.3005H80.3211L80.3468 18.088C80.4239 17.527 80.4667 16.9575 80.4667 16.388C80.4667 12.0785 78.3095 9.894 74.055 9.894ZM76.6402 15.4445H71.4013C71.6068 13.838 72.4799 13.0475 74.0636 13.0475C75.7671 13.0475 76.5974 13.8125 76.6402 15.4445Z" fill="#48383E"/>
<path d="M33.6162 4.896C34.9773 4.896 36.0816 3.7995 36.0816 2.448C36.0816 1.0965 34.9773 0 33.6162 0C32.2551 0 31.1509 1.0965 31.1509 2.448C31.1509 3.7995 32.2551 4.896 33.6162 4.896Z" fill="#00ABAF"/>
<path d="M31.7501 6.664C31.2022 9.945 29.6186 13.6085 28.3174 13.6085V17.357C30.4061 17.357 31.9299 16.014 33.017 14.2885L34.7376 23.834H38.5726L35.4738 6.6385L31.7501 6.664Z" fill="#00ABAF"/>
<path d="M23.0272 4.896C24.3882 4.896 25.4925 3.7995 25.4925 2.448C25.4925 1.0965 24.3882 0 23.0272 0C21.6661 0 20.5618 1.0965 20.5618 2.448C20.5618 3.7995 21.6661 4.896 23.0272 4.896Z" fill="#007FC5"/>
<path d="M28.3174 17.357V13.6085C27.0847 13.6085 25.4583 9.86 24.8847 6.6385L21.1696 6.63L18.0708 23.834H21.9058L23.6349 14.229C24.7221 15.98 26.2458 17.357 28.3174 17.357Z" fill="#007FC5"/>
<path d="M1.58365 31.4415C0.684823 31.4415 0 30.821 0 29.9625C0 29.0955 0.684823 28.4835 1.58365 28.4835C2.48248 28.4835 3.15874 29.0955 3.15874 29.9625C3.15018 30.821 2.47392 31.4415 1.58365 31.4415ZM1.58365 30.8635C2.10583 30.8635 2.4996 30.5065 2.4996 29.971C2.4996 29.427 2.10583 29.0785 1.58365 29.0785C1.06148 29.0785 0.667702 29.427 0.667702 29.971C0.667702 30.498 1.05291 30.8635 1.58365 30.8635ZM4.9564 33.337V33.8895H0.89883V31.9515H1.58365V33.337H4.9564ZM4.7852 32.385H4.10894V28.0925H4.7852V32.385Z" fill="#636569"/>
<path d="M9.81009 31.722C9.14238 31.5095 8.63733 31.0845 8.37196 30.5235C8.10659 31.127 7.61865 31.5945 6.92527 31.824L6.59142 31.297C7.50737 30.991 8.02099 30.2685 8.02099 29.495V29.3845H6.77119V28.8405H8.02099V28.135H8.70581V28.8405H9.94705V29.3845H8.69725V29.495C8.69725 30.2175 9.21943 30.906 10.1354 31.1865L9.81009 31.722ZM11.6762 33.337V33.8895H7.67858V32.113H8.35484V33.3455H11.6762V33.337ZM10.8544 29.869V28.101H11.5307V32.487H10.8544V30.4215H9.75872V29.869H10.8544Z" fill="#636569"/>
<path d="M18.9781 28.7215C18.9781 30.481 18.2676 31.9685 16.2303 32.9545L15.8708 32.419C17.4287 31.671 18.1649 30.634 18.2848 29.274H16.1618V28.7215H18.9781ZM20.7244 34H20.0482V28.101H20.7244V34Z" fill="#636569"/>
<path d="M25.561 31.025V31.518H27.2388V32.946H23.8575V33.4305H27.41V33.949H23.1812V32.47H26.5711V32.0365H23.1641V31.5265H24.8676V31.025H22.5221V30.4895H27.9065V31.025H25.561ZM27.4015 30.1665C26.417 30.0475 25.6038 29.648 25.2186 29.053C24.8334 29.6395 24.0287 30.0475 23.0357 30.1665L22.8046 29.648C23.9945 29.529 24.8676 28.951 24.8676 28.288V28.118H25.5696V28.288C25.5696 28.951 26.4427 29.529 27.6326 29.648L27.4015 30.1665Z" fill="#636569"/>
<path d="M32.0668 30.9485C31.7929 31.2715 31.3649 31.467 30.8769 31.4585C29.9952 31.4585 29.3275 30.8295 29.3275 29.9625C29.3275 29.0955 29.9952 28.4665 30.8769 28.4665C31.3649 28.4665 31.7843 28.662 32.0668 28.9765H33.4964V28.1095H34.1727V32.453H33.4964V30.957H32.0668V30.9485ZM30.8855 30.872C31.3906 30.872 31.7843 30.5065 31.7843 29.954C31.7843 29.4185 31.3991 29.053 30.8855 29.053C30.3633 29.053 29.9781 29.4185 29.9781 29.954C29.9781 30.5065 30.3633 30.872 30.8855 30.872ZM34.3267 33.337V33.8895H30.3205V32.011H30.9968V33.3455H34.3267V33.337ZM32.3579 29.5205C32.4007 29.6565 32.4264 29.801 32.4264 29.954C32.4264 30.1155 32.4092 30.2515 32.3579 30.396H33.4964V29.5205H32.3579Z" fill="#636569"/>
<path d="M39.1975 28.237H39.831V33.711H39.1975V31.722H38.2217V31.1695H39.1975V30.2345H38.3244C38.0505 31.229 37.4256 32.0875 36.3127 32.742L35.9275 32.266C37.1516 31.5265 37.7423 30.566 37.845 29.359H36.2186V28.815H38.5127C38.5127 29.1125 38.4956 29.41 38.4442 29.682H39.1975V28.237ZM41.0551 34H40.4045V28.101H41.0551V34Z" fill="#636569"/>
<path d="M50.5485 30.7955V31.3395H45.1897V30.7955H47.2956V29.7075H47.9804V30.7955H50.5485ZM49.9321 32.895C49.9321 33.5835 49.1189 34 47.852 34C46.5679 34 45.7547 33.5835 45.7547 32.895C45.7547 32.215 46.5679 31.7985 47.852 31.7985C49.1189 31.7985 49.9321 32.215 49.9321 32.895ZM49.0675 30.3705C49.2216 29.7925 49.2216 29.3675 49.2216 28.917H45.8146V28.373H49.8979V28.8745C49.8979 29.342 49.8979 29.835 49.7352 30.447L49.0675 30.3705ZM49.2559 32.895C49.2559 32.5295 48.7251 32.317 47.852 32.317C46.9703 32.317 46.431 32.5295 46.431 32.895C46.431 33.269 46.9703 33.4815 47.852 33.4815C48.7251 33.4815 49.2559 33.269 49.2559 32.895Z" fill="#636569"/>
<path d="M57.2683 30.7955V31.3395H51.9096V30.7955H54.0154V29.7075H54.7002V30.7955H57.2683ZM56.652 32.895C56.652 33.5835 55.8387 34 54.5718 34C53.2878 34 52.4745 33.5835 52.4745 32.895C52.4745 32.215 53.2878 31.7985 54.5718 31.7985C55.8302 31.7985 56.652 32.215 56.652 32.895ZM55.7788 30.3705C55.9329 29.7925 55.9329 29.3675 55.9329 28.917H52.5259V28.373H56.6092V28.8745C56.6092 29.342 56.6092 29.835 56.4465 30.447L55.7788 30.3705ZM55.9671 32.895C55.9671 32.5295 55.4364 32.317 54.5633 32.317C53.6815 32.317 53.1422 32.5295 53.1422 32.895C53.1422 33.269 53.6815 33.4815 54.5633 33.4815C55.445 33.4815 55.9671 33.269 55.9671 32.895Z" fill="#636569"/>
<path d="M66.4963 31.195H61.1119V30.6595H66.4963V31.195ZM62.4387 28.781H61.5998V28.2625H66.0083V28.781H65.1694V29.733H65.9741V30.243H61.634V29.733H62.4473V28.781H62.4387ZM62.4387 33.4475H65.9912V33.949H61.7624V32.538H65.1523V32.13H61.7453V31.637H65.8115V33.014H62.4301V33.4475H62.4387ZM64.4846 28.781H63.115V29.733H64.4846V28.781Z" fill="#636569"/>
<path d="M70.6737 31.3565C69.9632 31.4925 69.3554 31.5265 68.4908 31.5265H68.0885V29.75H69.6721V29.07H68.0799V28.543H70.3313V30.26H68.7476V30.991C69.4581 30.9825 69.9974 30.9485 70.6138 30.8295L70.6737 31.3565ZM71.1959 31.96C71.1959 32.657 72.0091 33.303 73.1562 33.456L72.8908 33.983C71.9663 33.83 71.2216 33.405 70.8535 32.81C70.4854 33.405 69.7406 33.83 68.8161 33.983L68.5508 33.456C69.6978 33.303 70.5025 32.657 70.5025 31.96V31.8325H71.1788V31.96H71.1959ZM71.564 31.5945H70.9305V28.2115H71.564V29.5885H72.2231V28.101H72.8651V32.096H72.2231V30.141H71.564V31.5945Z" fill="#636569"/>
<path d="M79.9274 31.0165V31.552H74.5344V31.0165H76.8885V30.4385H75.0566V29.8945H75.8698V28.8065H75.0309V28.2625H79.4309V28.8065H78.592V29.8945H79.3966V30.4385H77.5733V31.0165H79.9274ZM75.185 32.0365H79.2682V33.9235H75.185V32.0365ZM75.8612 33.388H78.6091V32.572H75.8612V33.388ZM76.5461 29.8945H77.9157V28.8065H76.5461V29.8945Z" fill="#636569"/>
</g>
<defs>
<clipPath id="clip0_169_42">
<rect width="80.4667" height="34" fill="white"/>
</clipPath>
</defs>
</svg>
