<svg width="170" height="170" viewBox="0 0 170 170" fill="none" xmlns="http://www.w3.org/2000/svg">
<g clip-path="url(#clip0_968_6404)">
<path d="M67 69C67 67.8954 67.8954 67 69 67H95C96.1046 67 97 67.8954 97 69V83C97 83.5523 97.4477 84 98 84C98.5523 84 99 83.5523 99 83V68C99 66.3915 97.6085 65 96 65H68C66.3915 65 65 66.3915 65 68V96C65 97.6085 66.3915 99 68 99H83C83.5523 99 84 98.5523 84 98C84 97.4477 83.5523 97 83 97H69C67.8954 97 67 96.1046 67 95V69Z" fill="#D2D2D2"/>
<path d="M76.7391 81.9525C76.2584 81.6192 75.5955 81.7678 75.3032 82.2745L72.8652 86.5003C72.4806 87.1669 72.9618 88 73.7314 88H90.2686C91.0382 88 91.5194 87.1669 91.1348 86.5003L85.8778 77.3882C85.5082 76.7475 84.595 76.7159 84.182 77.3295L79.6923 84L76.7391 81.9525Z" fill="#D2D2D2"/>
<path d="M99.0002 92C99.0002 91.4477 98.5524 91 98.0001 91C97.4479 91 97.0002 91.4477 97.0001 92L97 97H92.0001C91.4478 97 91 97.4478 91 98.0001C91 98.5524 91.4478 99.0002 92.0001 99.0002H97.0002V104C97.0002 104.552 97.4479 105 98.0002 105C98.5524 105 99.0002 104.552 99.0002 104V99.0002H104C104.552 99.0002 105 98.5524 105 98C105 97.4477 104.552 97 104 97H99.0002V92Z" fill="#D2D2D2"/>
</g>
<rect x="0.5" y="0.5" width="169" height="169" rx="2.5" stroke="#E9E9E9"/>
<defs>
<clipPath id="clip0_968_6404">
<rect width="40.0002" height="40.0002" fill="white" transform="translate(65 65)"/>
</clipPath>
</defs>
</svg>
