<svg width="163" height="123" viewBox="0 0 163 123" fill="none" xmlns="http://www.w3.org/2000/svg">
<path d="M2.13 24.82L2.16 22.45L2.19 18.04C2.21 17.4 2.22 16.74 2.22 16.06C2.22 15.38 2.22 14.68 2.22 13.96C2.22 13.24 2.22 12.6 2.22 12.04C2.22 11.48 2.24 10.85 2.28 10.15V10.03C2.3 9.83 2.31 9.63 2.31 9.43C2.33 9.21 2.34 8.99 2.34 8.77C2.36 8.41 2.47 8.02 2.67 7.6C2.81 7.32 3.02 7.08 3.3 6.88C3.62 6.72 3.93 6.64 4.23 6.64C4.39 6.64 4.53 6.65 4.65 6.67C4.79 6.67 4.92 6.68 5.04 6.7C5.3 6.74 5.53 6.86 5.73 7.06C5.85 7.16 5.96 7.32 6.06 7.54C6.1 7.66 6.13 7.78 6.15 7.9C6.19 8 6.22 8.11 6.24 8.23C6.26 8.37 6.27 8.5 6.27 8.62C6.29 8.74 6.3 8.86 6.3 8.98C6.3 9.12 6.29 9.25 6.27 9.37C6.27 9.47 6.27 9.58 6.27 9.7V10.21L6.09 25.78V26.08C6.09 26.14 6.08 26.22 6.06 26.32C6.06 26.4 6.05 26.5 6.03 26.62C5.99 26.72 5.95 26.83 5.91 26.95C5.89 27.05 5.86 27.16 5.82 27.28C5.76 27.38 5.69 27.48 5.61 27.58C5.55 27.66 5.47 27.74 5.37 27.82C5.21 27.98 4.95 28.09 4.59 28.15C4.05 28.27 3.54 28.22 3.06 28C2.82 27.84 2.65 27.64 2.55 27.4C2.49 27.34 2.46 27.28 2.46 27.22C2.44 27.18 2.42 27.15 2.4 27.13C2.38 27.11 2.36 27.08 2.34 27.04C2.3 26.94 2.27 26.84 2.25 26.74C2.23 26.62 2.22 26.5 2.22 26.38C2.2 26.28 2.18 26.18 2.16 26.08C2.16 25.98 2.15 25.88 2.13 25.78C2.11 25.62 2.11 25.45 2.13 25.27V24.82ZM18.2482 13.99C18.5882 13.91 18.9282 13.93 19.2682 14.05C19.6282 14.17 19.9582 14.37 20.2582 14.65C20.3982 14.79 20.4982 14.96 20.5582 15.16C20.6382 15.36 20.6782 15.57 20.6782 15.79C20.6782 16.03 20.6382 16.29 20.5582 16.57C20.4982 16.83 20.4082 17.03 20.2882 17.17C20.1282 17.35 19.9182 17.49 19.6582 17.59C19.3982 17.69 19.1482 17.76 18.9082 17.8C18.6682 17.82 18.4582 17.83 18.2782 17.83C18.1182 17.83 18.0282 17.83 18.0082 17.83L12.1282 17.86C11.8882 17.88 11.6382 17.9 11.3782 17.92C11.1382 17.92 10.8982 17.91 10.6582 17.89C10.4182 17.85 10.1882 17.79 9.9682 17.71C9.7682 17.61 9.5782 17.48 9.3982 17.32C9.1782 17.1 9.0082 16.89 8.8882 16.69C8.7682 16.47 8.7082 16.22 8.7082 15.94C8.7082 15.6 8.7982 15.27 8.9782 14.95C9.1782 14.61 9.4482 14.38 9.7882 14.26C10.2082 14.08 10.6382 14 11.0782 14.02C11.5382 14.02 11.9982 14.01 12.4582 13.99H18.2482ZM40.2872 25.84C40.2672 26.08 40.2372 26.33 40.1972 26.59C40.1572 26.85 40.0872 27.09 39.9872 27.31C39.8872 27.55 39.7572 27.73 39.5972 27.85C39.3772 28.05 39.1172 28.16 38.8172 28.18C38.5372 28.28 38.2672 28.31 38.0072 28.27C37.7472 28.23 37.5072 28.16 37.2872 28.06C37.0072 27.88 36.7972 27.67 36.6572 27.43C36.5372 27.17 36.4472 26.9 36.3872 26.62C36.3272 26.34 36.2972 26.05 36.2972 25.75C36.2972 25.45 36.2972 25.17 36.2972 24.91V22.57L36.2672 17.98C36.2672 17.66 36.2672 17.41 36.2672 17.23C36.2672 17.05 36.2672 16.89 36.2672 16.75C36.2672 16.59 36.2572 16.42 36.2372 16.24C36.2372 16.04 36.2372 15.76 36.2372 15.4C36.2372 15.34 36.2372 15.24 36.2372 15.1C36.2572 14.94 36.2472 14.53 36.2072 13.87C35.4272 15.17 34.7772 16.22 34.2572 17.02C33.7572 17.8 33.3272 18.41 32.9672 18.85C32.6272 19.27 32.3272 19.56 32.0672 19.72C31.8072 19.86 31.5372 19.94 31.2572 19.96C31.0972 19.98 30.9372 19.95 30.7772 19.87C30.6172 19.79 30.4572 19.69 30.2972 19.57C30.1572 19.45 30.0172 19.33 29.8772 19.21C29.7572 19.07 29.6572 18.94 29.5772 18.82C29.0972 18.22 28.5572 17.5 27.9572 16.66C27.3572 15.82 26.7372 14.8 26.0972 13.6C26.0972 13.62 26.0872 13.95 26.0672 14.59C26.0672 15.23 26.0672 16.03 26.0672 16.99C26.0672 17.93 26.0572 18.95 26.0372 20.05C26.0372 21.13 26.0272 22.14 26.0072 23.08C26.0072 24.02 25.9972 24.81 25.9772 25.45C25.9572 26.07 25.9372 26.38 25.9172 26.38C25.9172 26.72 25.8372 27.04 25.6772 27.34C25.5172 27.62 25.2972 27.85 25.0172 28.03C24.7572 28.21 24.4472 28.31 24.0872 28.33C23.7272 28.35 23.3372 28.25 22.9172 28.03C22.6572 27.87 22.4572 27.64 22.3172 27.34C22.1972 27.04 22.1172 26.76 22.0772 26.5C22.0572 26.22 22.0372 25.95 22.0172 25.69C22.0172 25.43 22.0172 25.16 22.0172 24.88L22.0472 22.54L22.0772 17.92V13.9C22.0772 12.16 22.1372 10.45 22.2572 8.77C22.2572 8.55 22.2772 8.35 22.3172 8.17C22.3772 7.97 22.4472 7.78 22.5272 7.6C22.6872 7.28 22.8972 7.04 23.1572 6.88C23.4572 6.7 23.7772 6.61 24.1172 6.61C24.2572 6.61 24.3872 6.62 24.5072 6.64C24.6472 6.64 24.7772 6.65 24.8972 6.67C25.2972 6.75 25.6372 6.99 25.9172 7.39C26.2172 7.77 26.4972 8.1 26.7572 8.38C26.9172 8.56 27.0872 8.78 27.2672 9.04C27.4472 9.3 27.6272 9.57 27.8072 9.85C27.9872 10.13 28.1572 10.4 28.3172 10.66C28.4772 10.92 28.6172 11.15 28.7372 11.35C29.2572 12.19 29.7172 12.96 30.1172 13.66C30.5372 14.36 30.9272 14.96 31.2872 15.46C31.3472 15.4 31.4172 15.32 31.4972 15.22C31.5772 15.1 31.6572 14.98 31.7372 14.86C31.8372 14.72 31.9172 14.59 31.9772 14.47C32.0572 14.35 32.1172 14.25 32.1572 14.17C32.3572 13.85 32.5572 13.54 32.7572 13.24C32.9572 12.92 33.1672 12.59 33.3872 12.25C33.6272 11.89 33.8672 11.5 34.1072 11.08C34.3672 10.66 34.6672 10.18 35.0072 9.64C35.1472 9.4 35.3272 9.11 35.5472 8.77C35.7672 8.43 36.0172 8.1 36.2972 7.78C36.5772 7.46 36.8672 7.19 37.1672 6.97C37.4872 6.73 37.8072 6.61 38.1272 6.61C38.2872 6.61 38.4272 6.62 38.5472 6.64C38.6672 6.64 38.7872 6.65 38.9072 6.67C39.1472 6.69 39.3772 6.8 39.5972 7C39.7572 7.16 39.8772 7.33 39.9572 7.51C40.0372 7.77 40.0872 7.99 40.1072 8.17C40.1272 8.31 40.1372 8.44 40.1372 8.56C40.1572 8.68 40.1672 8.8 40.1672 8.92C40.1672 10.04 40.1772 11.15 40.1972 12.25C40.2172 13.35 40.2272 14.46 40.2272 15.58C40.2272 16.94 40.2272 18.34 40.2272 19.78C40.2472 21.22 40.2572 22.62 40.2572 23.98C40.2572 24.26 40.2672 24.56 40.2872 24.88C40.3072 25.2 40.3072 25.52 40.2872 25.84ZM45.3401 15.37C45.9401 15.07 46.5701 14.86 47.2301 14.74C47.8901 14.6 48.5401 14.57 49.1801 14.65C49.8401 14.71 50.4701 14.88 51.0701 15.16C51.6701 15.42 52.2301 15.8 52.7501 16.3C53.2701 16.82 53.6701 17.39 53.9501 18.01C54.2301 18.63 54.4301 19.32 54.5501 20.08C54.6301 20.6 54.7601 21.08 54.9401 21.52C55.1201 21.96 55.3101 22.4 55.5101 22.84C55.7301 23.28 55.9301 23.72 56.1101 24.16C56.3101 24.6 56.4701 25.06 56.5901 25.54C56.6901 26 56.6501 26.45 56.4701 26.89C56.3101 27.31 55.9701 27.57 55.4501 27.67C55.1501 27.73 54.8601 27.71 54.5801 27.61C54.3201 27.49 54.0801 27.33 53.8601 27.13C53.6401 26.91 53.4401 26.68 53.2601 26.44C53.1001 26.18 52.9501 25.94 52.8101 25.72C52.3501 26.32 51.8501 26.79 51.3101 27.13C50.7701 27.45 50.1201 27.66 49.3601 27.76C48.7201 27.84 48.1101 27.86 47.5301 27.82C46.9501 27.78 46.3301 27.67 45.6701 27.49C44.8101 27.27 44.1001 26.89 43.5401 26.35C43.0001 25.79 42.5801 25.15 42.2801 24.43C42.0001 23.69 41.8501 22.9 41.8301 22.06C41.8101 21.22 41.9101 20.39 42.1301 19.57C42.4101 18.49 42.8301 17.61 43.3901 16.93C43.9501 16.25 44.6001 15.73 45.3401 15.37ZM46.0901 18.88C45.8101 19.16 45.5901 19.49 45.4301 19.87C45.2701 20.25 45.1701 20.65 45.1301 21.07C45.1101 21.49 45.1501 21.91 45.2501 22.33C45.3501 22.75 45.5101 23.12 45.7301 23.44C45.9301 23.72 46.2701 23.96 46.7501 24.16C47.2301 24.34 47.7301 24.45 48.2501 24.49C48.8501 24.53 49.3701 24.37 49.8101 24.01C50.2701 23.65 50.6101 23.2 50.8301 22.66C51.0701 22.1 51.1801 21.51 51.1601 20.89C51.1401 20.25 50.9701 19.67 50.6501 19.15C50.4101 18.77 50.0901 18.49 49.6901 18.31C49.3101 18.13 48.9001 18.04 48.4601 18.04C48.0201 18.02 47.5801 18.09 47.1401 18.25C46.7201 18.39 46.3701 18.6 46.0901 18.88ZM67.451 14.77C67.611 15.15 67.621 15.57 67.481 16.03C67.361 16.49 67.131 16.79 66.791 16.93C66.611 17.01 66.371 17.08 66.071 17.14C65.771 17.18 65.441 17.22 65.081 17.26C64.741 17.3 64.401 17.33 64.061 17.35C63.721 17.37 63.431 17.38 63.191 17.38C63.211 17.98 63.231 18.6 63.251 19.24C63.271 19.86 63.291 20.47 63.311 21.07C63.331 21.67 63.341 22.25 63.341 22.81C63.341 23.35 63.331 23.84 63.311 24.28C63.311 24.58 63.311 24.93 63.311 25.33C63.311 25.71 63.281 26.08 63.221 26.44C63.181 26.8 63.111 27.12 63.011 27.4C62.911 27.66 62.761 27.83 62.561 27.91C61.941 28.17 61.371 28.24 60.851 28.12C60.351 28.02 59.991 27.81 59.771 27.49C59.611 27.23 59.491 26.93 59.411 26.59C59.331 26.23 59.271 25.87 59.231 25.51C59.211 25.13 59.201 24.77 59.201 24.43C59.221 24.07 59.231 23.76 59.231 23.5C59.251 22.66 59.261 21.71 59.261 20.65C59.281 19.57 59.291 18.49 59.291 17.41H58.841C58.601 17.41 58.291 17.41 57.911 17.41C57.551 17.39 57.181 17.36 56.801 17.32C56.441 17.26 56.101 17.19 55.781 17.11C55.461 17.01 55.231 16.87 55.091 16.69C54.871 16.43 54.731 16.15 54.671 15.85C54.631 15.55 54.651 15.27 54.731 15.01C54.831 14.73 54.981 14.49 55.181 14.29C55.381 14.07 55.611 13.93 55.871 13.87C56.231 13.77 56.741 13.72 57.401 13.72C58.061 13.7 58.681 13.7 59.261 13.72C59.241 13.52 59.231 13.33 59.231 13.15C59.231 12.95 59.221 12.76 59.201 12.58C59.181 12.34 59.171 12.04 59.171 11.68C59.171 11.3 59.191 10.93 59.231 10.57C59.291 10.19 59.381 9.84 59.501 9.52C59.621 9.18 59.791 8.92 60.011 8.74C60.311 8.5 60.611 8.37 60.911 8.35C61.231 8.31 61.521 8.35 61.781 8.47C62.061 8.59 62.291 8.77 62.471 9.01C62.671 9.23 62.811 9.48 62.891 9.76C62.951 10 63.001 10.29 63.041 10.63C63.081 10.95 63.101 11.29 63.101 11.65C63.121 12.01 63.131 12.37 63.131 12.73C63.131 13.09 63.131 13.42 63.131 13.72H63.431C63.731 13.72 64.081 13.71 64.481 13.69C64.881 13.67 65.271 13.68 65.651 13.72C66.051 13.76 66.411 13.86 66.731 14.02C67.051 14.16 67.291 14.41 67.451 14.77ZM78.2714 23.89C78.5114 23.83 78.7514 23.79 78.9914 23.77C79.2514 23.75 79.4814 23.78 79.6814 23.86C79.9014 23.94 80.0814 24.08 80.2214 24.28C80.3614 24.46 80.4314 24.72 80.4314 25.06C80.4314 25.3 80.3714 25.53 80.2514 25.75C80.1314 25.97 79.9814 26.17 79.8014 26.35C79.6214 26.53 79.4214 26.69 79.2014 26.83C78.9814 26.95 78.7714 27.05 78.5714 27.13C77.9914 27.39 77.3214 27.59 76.5614 27.73C75.8214 27.87 75.0514 27.92 74.2514 27.88C73.1714 27.84 72.1314 27.63 71.1314 27.25C70.1514 26.85 69.3814 26.2 68.8214 25.3C68.3014 24.42 67.9914 23.44 67.8914 22.36C67.7914 21.28 67.8414 20.26 68.0414 19.3C68.2614 18.14 68.6314 17.2 69.1514 16.48C69.6914 15.74 70.3314 15.15 71.0714 14.71C71.9714 14.19 72.9814 13.92 74.1014 13.9C75.2214 13.88 76.2914 14.1 77.3114 14.56C77.9914 14.86 78.6014 15.27 79.1414 15.79C79.6814 16.29 80.0914 16.9 80.3714 17.62C80.4514 17.8 80.5114 18.02 80.5514 18.28C80.6114 18.54 80.6514 18.82 80.6714 19.12C80.6914 19.4 80.6914 19.68 80.6714 19.96C80.6514 20.24 80.6014 20.49 80.5214 20.71C80.4014 21.07 80.2514 21.35 80.0714 21.55C79.8914 21.75 79.6614 21.9 79.3814 22C79.1014 22.1 78.7614 22.17 78.3614 22.21C77.9814 22.23 77.5214 22.25 76.9814 22.27C76.5014 22.29 76.0514 22.3 75.6314 22.3C75.2114 22.3 74.7814 22.3 74.3414 22.3C73.9014 22.28 73.4414 22.27 72.9614 22.27C72.5014 22.25 71.9814 22.23 71.4014 22.21C71.3414 22.61 71.3914 22.96 71.5514 23.26C71.7314 23.54 71.9714 23.78 72.2714 23.98C72.5714 24.16 72.9114 24.3 73.2914 24.4C73.6714 24.5 74.0414 24.56 74.4014 24.58C75.0814 24.62 75.7314 24.57 76.3514 24.43C76.9714 24.27 77.6114 24.09 78.2714 23.89ZM76.9814 18.07C76.6014 17.63 76.2014 17.31 75.7814 17.11C75.4614 16.97 75.1214 16.91 74.7614 16.93C74.4214 16.93 74.0914 16.98 73.7714 17.08C73.1914 17.22 72.7014 17.52 72.3014 17.98C72.2614 18.02 72.1914 18.12 72.0914 18.28C71.9914 18.42 71.8914 18.57 71.7914 18.73C71.7114 18.89 71.6514 19.04 71.6114 19.18C71.5714 19.32 71.5914 19.39 71.6714 19.39H77.5514C77.5314 19.11 77.4814 18.88 77.4014 18.7C77.3214 18.5 77.1814 18.29 76.9814 18.07Z" fill="white"/>
<path d="M5.76 49.82C5.56 49.86 5.42 49.94 5.34 50.06C5.26 50.18 5.21 50.32 5.19 50.48C5.17 50.64 5.17 50.8 5.19 50.96C5.21 51.12 5.22 51.27 5.22 51.41C5.22 51.53 5.22 51.69 5.22 51.89C5.22 52.07 5.22 52.27 5.22 52.49C5.22 52.69 5.22 52.89 5.22 53.09C5.24 53.29 5.26 53.46 5.28 53.6C5.28 53.72 5.27 53.89 5.25 54.11C5.25 54.31 5.3 54.46 5.4 54.56C5.4 54.6 5.42 54.63 5.46 54.65C5.5 54.67 5.54 54.68 5.58 54.68C6.04 54.68 6.55 54.68 7.11 54.68C7.67 54.68 8.18 54.66 8.64 54.62C9.34 54.62 10.07 54.62 10.83 54.62C11.61 54.6 12.35 54.62 13.05 54.68C13.33 54.72 13.54 54.79 13.68 54.89C13.84 54.99 13.97 55.12 14.07 55.28C14.19 55.44 14.27 55.62 14.31 55.82C14.35 56 14.37 56.2 14.37 56.42C14.41 56.66 14.39 56.89 14.31 57.11C14.25 57.31 14.17 57.47 14.07 57.59C13.97 57.71 13.85 57.82 13.71 57.92C13.59 58 13.45 58.09 13.29 58.19C12.89 58.37 12.49 58.46 12.09 58.46C11.71 58.44 11.31 58.45 10.89 58.49C10.53 58.49 10.12 58.5 9.66 58.52C9.2 58.54 8.78 58.53 8.4 58.49C8.1 58.45 7.76 58.44 7.38 58.46C7.02 58.48 6.7 58.49 6.42 58.49C6.14 58.45 5.87 58.44 5.61 58.46C5.35 58.48 5.08 58.49 4.8 58.49C4.32 58.45 3.84 58.4 3.36 58.34C2.88 58.28 2.44 58.11 2.04 57.83C1.76 57.67 1.55 57.4 1.41 57.02C1.29 56.78 1.2 56.51 1.14 56.21C1.08 55.91 1.07 55.62 1.11 55.34C1.13 54.9 1.13 54.42 1.11 53.9C1.11 53.36 1.1 52.82 1.08 52.28C1.08 51.74 1.07 51.21 1.05 50.69C1.05 50.15 1.05 49.64 1.05 49.16C1.05 48.8 1.04 48.42 1.02 48.02C1.02 47.6 1.11 47.24 1.29 46.94C1.47 46.66 1.67 46.46 1.89 46.34C2.11 46.2 2.34 46.11 2.58 46.07C2.84 46.03 3.1 46.02 3.36 46.04C3.64 46.04 3.92 46.04 4.2 46.04H6.96C7.08 46.04 7.24 46.04 7.44 46.04C7.66 46.04 7.88 46.04 8.1 46.04C8.32 46.02 8.54 46.01 8.76 46.01C8.98 45.99 9.15 45.96 9.27 45.92C9.45 45.86 9.57 45.74 9.63 45.56C9.73 45.04 9.78 44.47 9.78 43.85C9.8 43.23 9.79 42.66 9.75 42.14C9.75 41.92 9.75 41.64 9.75 41.3C9.75 40.96 9.69 40.7 9.57 40.52C9.43 40.32 9.12 40.22 8.64 40.22L3.06 40.28C2.78 40.28 2.47 40.25 2.13 40.19C1.79 40.11 1.53 39.96 1.35 39.74C1.29 39.64 1.23 39.55 1.17 39.47C1.11 39.37 1.05 39.24 0.99 39.08C0.83 38.54 0.87 38.05 1.11 37.61C1.37 37.17 1.78 36.89 2.34 36.77C2.82 36.67 3.3 36.64 3.78 36.68C4.26 36.7 4.74 36.69 5.22 36.65H9.75C10.15 36.65 10.56 36.65 10.98 36.65C11.4 36.65 11.81 36.71 12.21 36.83C12.63 36.95 12.99 37.25 13.29 37.73C13.33 37.83 13.36 37.92 13.38 38C13.4 38.08 13.43 38.18 13.47 38.3C13.51 38.4 13.54 38.49 13.56 38.57C13.58 38.65 13.59 38.74 13.59 38.84C13.63 39.18 13.65 39.58 13.65 40.04C13.65 40.5 13.65 40.88 13.65 41.18C13.65 41.82 13.66 42.5 13.68 43.22C13.7 43.94 13.71 44.62 13.71 45.26C13.71 45.92 13.7 46.56 13.68 47.18C13.68 47.8 13.59 48.34 13.41 48.8C13.21 49.2 12.93 49.46 12.57 49.58C12.23 49.74 11.86 49.81 11.46 49.79C11.06 49.77 10.69 49.76 10.35 49.76C10.13 49.76 9.87 49.77 9.57 49.79C9.27 49.79 8.97 49.79 8.67 49.79C8.37 49.79 8.08 49.8 7.8 49.82C7.54 49.82 7.32 49.82 7.14 49.82C6.98 49.82 6.84 49.82 6.72 49.82C6.62 49.8 6.52 49.79 6.42 49.79C6.34 49.77 6.25 49.77 6.15 49.79C6.05 49.79 5.92 49.8 5.76 49.82ZM22.11 57.14C22.07 57.38 22.04 57.62 22.02 57.86C22 58.08 21.95 58.31 21.87 58.55C21.83 58.63 21.8 58.7 21.78 58.76C21.76 58.82 21.73 58.89 21.69 58.97C21.55 59.25 21.37 59.47 21.15 59.63C20.69 59.91 20.18 59.98 19.62 59.84C19.3 59.78 19.04 59.66 18.84 59.48C18.66 59.32 18.52 59.12 18.42 58.88C18.34 58.62 18.27 58.37 18.21 58.13C18.17 57.89 18.15 57.68 18.15 57.5C18.15 57.32 18.15 57.22 18.15 57.2V39.53C18.15 39.29 18.15 39.03 18.15 38.75C18.15 38.47 18.17 38.19 18.21 37.91C18.25 37.63 18.31 37.37 18.39 37.13C18.47 36.89 18.58 36.7 18.72 36.56C18.94 36.34 19.17 36.21 19.41 36.17C19.65 36.11 19.91 36.08 20.19 36.08C20.53 36.08 20.84 36.18 21.12 36.38C21.42 36.56 21.63 36.82 21.75 37.16C21.93 37.58 22.03 38.02 22.05 38.48C22.07 38.94 22.09 39.4 22.11 39.86V40.01C22.15 41.55 22.16 42.99 22.14 44.33C22.12 45.65 22.11 47.03 22.11 48.47V56.06C22.11 56.24 22.11 56.42 22.11 56.6C22.13 56.78 22.13 56.96 22.11 57.14ZM41.9266 50.9C42.2466 50.88 42.5766 50.89 42.9166 50.93C43.2766 50.95 43.6066 51.02 43.9066 51.14C44.2066 51.26 44.4466 51.44 44.6266 51.68C44.8266 51.92 44.9266 52.25 44.9266 52.67C44.9266 53.17 44.7566 53.55 44.4166 53.81C44.0766 54.05 43.6666 54.23 43.1866 54.35C42.7266 54.45 42.2366 54.51 41.7166 54.53C41.2166 54.53 40.8066 54.53 40.4866 54.53C40.3866 54.53 40.2966 54.54 40.2166 54.56C40.1566 54.56 40.0766 54.56 39.9766 54.56C39.9966 55.24 39.9966 55.96 39.9766 56.72C39.9766 57.48 39.9566 58.06 39.9166 58.46C39.8566 58.84 39.7566 59.2 39.6166 59.54C39.4766 59.9 39.2366 60.19 38.8966 60.41C38.5966 60.61 38.2466 60.71 37.8466 60.71C37.4466 60.71 37.0866 60.62 36.7666 60.44C36.5066 60.28 36.3066 60.05 36.1666 59.75C36.0466 59.45 35.9566 59.16 35.8966 58.88C35.8566 58.66 35.8466 58.42 35.8666 58.16C35.8866 57.9 35.8866 57.66 35.8666 57.44V54.56L31.6066 54.53C31.6266 55.15 31.6466 55.83 31.6666 56.57C31.6866 57.29 31.6566 57.91 31.5766 58.43C31.5166 58.81 31.4166 59.17 31.2766 59.51C31.1366 59.87 30.8966 60.16 30.5566 60.38C30.2566 60.58 29.9066 60.68 29.5066 60.68C29.1066 60.68 28.7466 60.59 28.4266 60.41C28.1666 60.25 27.9666 60.02 27.8266 59.72C27.7066 59.42 27.6166 59.13 27.5566 58.85C27.5166 58.63 27.5066 58.39 27.5266 58.13C27.5466 57.87 27.5466 57.63 27.5266 57.41V54.53H25.7266C25.2666 54.53 24.7666 54.47 24.2266 54.35C23.7066 54.23 23.3266 53.97 23.0866 53.57C22.8666 53.23 22.7566 52.88 22.7566 52.52C22.7766 52.14 22.9266 51.8 23.2066 51.5C23.3466 51.34 23.5366 51.22 23.7766 51.14C24.0166 51.06 24.2466 51.01 24.4666 50.99C24.7066 50.95 24.9066 50.93 25.0666 50.93C25.2466 50.93 25.3466 50.93 25.3666 50.93L41.9266 50.9ZM40.3066 44.39C40.6666 44.39 41.0566 44.45 41.4766 44.57C41.9166 44.67 42.2566 44.92 42.4966 45.32C42.6966 45.64 42.7766 46.06 42.7366 46.58C42.7166 47.08 42.5566 47.46 42.2566 47.72C42.0166 47.92 41.7366 48.07 41.4166 48.17C41.0966 48.27 40.7566 48.34 40.3966 48.38C40.0566 48.42 39.7166 48.44 39.3766 48.44C39.0366 48.44 38.7166 48.44 38.4166 48.44C38.2566 48.44 38.0866 48.44 37.9066 48.44C37.7266 48.42 37.5566 48.42 37.3966 48.44H36.3766C36.2166 48.44 35.8566 48.44 35.2966 48.44C34.7566 48.44 34.1766 48.44 33.5566 48.44C32.9566 48.44 32.3766 48.44 31.8166 48.44C31.2766 48.44 30.9266 48.44 30.7666 48.44C30.4666 48.42 30.1566 48.42 29.8366 48.44C29.5166 48.44 29.1966 48.44 28.8766 48.44C28.5366 48.44 28.1666 48.43 27.7666 48.41C27.3866 48.39 27.0166 48.33 26.6566 48.23C26.3166 48.13 26.0066 47.97 25.7266 47.75C25.4466 47.53 25.2466 47.21 25.1266 46.79C25.0466 46.57 24.9766 46.36 24.9166 46.16C24.8766 45.96 24.8566 45.75 24.8566 45.53C24.8566 45.21 24.8366 44.86 24.7966 44.48C24.7766 44.1 24.7666 43.71 24.7666 43.31C24.7666 42.61 24.7766 41.9 24.7966 41.18C24.8166 40.46 24.8266 39.72 24.8266 38.96C24.8666 38.7 24.9166 38.45 24.9766 38.21C25.0366 37.95 25.1266 37.71 25.2466 37.49C25.4066 37.25 25.6066 37.05 25.8466 36.89C26.1066 36.71 26.4066 36.62 26.7466 36.62C27.1666 36.62 27.5466 36.73 27.8866 36.95C28.2266 37.17 28.4466 37.5 28.5466 37.94C28.5866 38.1 28.6166 38.27 28.6366 38.45C28.6566 38.63 28.6766 38.81 28.6966 38.99C28.7366 39.27 28.7666 39.55 28.7866 39.83C28.8066 40.09 28.8266 40.36 28.8466 40.64C28.8666 40.92 28.8766 41.19 28.8766 41.45C28.8966 41.71 28.9066 41.97 28.9066 42.23C28.9066 42.45 28.9066 42.59 28.9066 42.65C28.9066 42.69 28.9066 42.72 28.9066 42.74C28.9066 42.76 28.9066 42.8 28.9066 42.86C28.9266 42.9 28.9466 43.03 28.9666 43.25C28.9866 43.59 29.0166 43.84 29.0566 44C29.1166 44.14 29.1966 44.23 29.2966 44.27C29.4166 44.31 29.5666 44.33 29.7466 44.33C29.9466 44.33 30.2066 44.35 30.5266 44.39C30.7466 44.43 30.9466 44.44 31.1266 44.42C31.3266 44.4 31.5366 44.39 31.7566 44.39H37.9666C38.0866 44.39 38.2266 44.4 38.3866 44.42C38.5466 44.42 38.7166 44.41 38.8966 44.39C39.1166 44.37 39.3466 44.37 39.5866 44.39C39.8266 44.39 40.0666 44.39 40.3066 44.39ZM66.1455 57.5C66.4655 57.52 66.7455 57.6 66.9855 57.74C67.2255 57.86 67.3955 58.08 67.4955 58.4C67.7155 59.14 67.4555 59.64 66.7155 59.9C66.4755 60 66.2255 60.06 65.9655 60.08C65.7255 60.1 65.5055 60.11 65.3055 60.11H51.6855C51.2855 60.11 50.8655 60.11 50.4255 60.11C49.9855 60.11 49.5455 60.1 49.1055 60.08C48.5655 60.06 48.1855 59.89 47.9655 59.57C47.7655 59.25 47.6455 58.86 47.6055 58.4L47.4855 56.42C47.4655 56.2 47.4655 55.94 47.4855 55.64C47.5255 55.32 47.6355 55.05 47.8155 54.83C48.0955 54.55 48.4155 54.37 48.7755 54.29C49.1355 54.21 49.5355 54.17 49.9755 54.17H50.9055C51.0055 54.17 51.0855 54.18 51.1455 54.2C51.2055 54.2 51.2655 54.2 51.3255 54.2H64.0755V53.15H51.0255C50.9255 53.15 50.8155 53.15 50.6955 53.15C50.5955 53.13 50.4855 53.13 50.3655 53.15H49.6455C49.4455 53.15 49.2655 53.15 49.1055 53.15C48.9455 53.15 48.7855 53.13 48.6255 53.09C48.4455 53.05 48.2755 53.01 48.1155 52.97C47.9755 52.93 47.8555 52.83 47.7555 52.67C47.6355 52.45 47.5555 52.24 47.5155 52.04C47.4755 51.84 47.4955 51.62 47.5755 51.38C47.6355 51.22 47.7255 51.1 47.8455 51.02C47.9655 50.92 48.1055 50.84 48.2655 50.78C48.4255 50.72 48.5755 50.68 48.7155 50.66C48.8755 50.62 49.0155 50.59 49.1355 50.57C49.2955 50.55 49.4455 50.54 49.5855 50.54C49.7455 50.52 49.9055 50.51 50.0655 50.51H50.5755C50.6755 50.53 50.7655 50.54 50.8455 50.54C50.9455 50.54 51.0455 50.54 51.1455 50.54H64.3755C65.3955 50.54 66.1755 50.7 66.7155 51.02C67.2555 51.32 67.5255 51.82 67.5255 52.52V54.62C67.5255 54.9 67.4555 55.17 67.3155 55.43C67.1955 55.69 66.9755 55.92 66.6555 56.12C66.3955 56.28 66.1355 56.37 65.8755 56.39C65.6155 56.39 65.3555 56.39 65.0955 56.39H51.1755V57.5H66.1455ZM52.9455 35.54C54.9855 35.68 56.5355 36.33 57.5955 37.49C58.6755 38.65 59.1455 40.3 59.0055 42.44C58.8655 44.24 58.3055 45.63 57.3255 46.61C56.3655 47.59 54.9255 48.08 53.0055 48.08C52.4855 48.08 52.0155 48.08 51.5955 48.08C51.1955 48.08 50.8055 48.06 50.4255 48.02C50.0455 47.96 49.6655 47.86 49.2855 47.72C48.9055 47.58 48.4855 47.37 48.0255 47.09C47.5855 46.81 47.2155 46.47 46.9155 46.07C46.6355 45.67 46.4055 45.24 46.2255 44.78C46.0455 44.3 45.9155 43.81 45.8355 43.31C45.7755 42.81 45.7455 42.32 45.7455 41.84C45.7455 40.76 45.9255 39.81 46.2855 38.99C46.6455 38.17 47.1455 37.49 47.7855 36.95C48.4255 36.41 49.1855 36.02 50.0655 35.78C50.9455 35.54 51.9055 35.46 52.9455 35.54ZM67.4655 46.94C67.4455 47.16 67.4155 47.39 67.3755 47.63C67.3355 47.85 67.2555 48.07 67.1355 48.29C66.9955 48.55 66.8255 48.74 66.6255 48.86C66.3455 49.08 66.0155 49.19 65.6355 49.19C65.3355 49.19 65.0555 49.11 64.7955 48.95C64.5155 48.79 64.2955 48.54 64.1355 48.2C63.9755 47.86 63.8955 47.55 63.8955 47.27V44.03C63.5555 44.03 63.2055 44.02 62.8455 44C62.5055 43.96 62.2255 43.92 62.0055 43.88C61.4255 43.8 60.9455 43.63 60.5655 43.37C60.2055 43.09 60.0755 42.62 60.1755 41.96C60.2555 41.52 60.3855 41.19 60.5655 40.97C60.7655 40.73 61.0855 40.6 61.5255 40.58C61.6655 40.58 61.7955 40.58 61.9155 40.58C62.0555 40.56 62.2055 40.55 62.3655 40.55C62.6055 40.55 62.8555 40.55 63.1155 40.55C63.3755 40.53 63.6355 40.52 63.8955 40.52V38.27C63.8955 38.23 63.8855 38.13 63.8655 37.97C63.8655 37.81 63.8655 37.64 63.8655 37.46C63.8655 37.26 63.8755 37.07 63.8955 36.89C63.9355 36.69 63.9855 36.53 64.0455 36.41C64.1455 36.23 64.2955 36.08 64.4955 35.96C64.6955 35.82 64.9355 35.73 65.2155 35.69C65.5555 35.65 65.8655 35.67 66.1455 35.75C66.4455 35.83 66.6755 35.96 66.8355 36.14C67.1155 36.44 67.2955 36.75 67.3755 37.07C67.4355 37.27 67.4655 37.56 67.4655 37.94C67.4855 38.32 67.4855 38.62 67.4655 38.84V40.46C67.4655 41.06 67.4755 41.63 67.4955 42.17C67.5155 42.69 67.5255 43.21 67.5255 43.73C67.5455 44.23 67.5455 44.74 67.5255 45.26C67.5255 45.78 67.5055 46.34 67.4655 46.94ZM55.5555 42.56C55.6555 41.84 55.5355 41.17 55.1955 40.55C54.8755 39.93 54.3955 39.51 53.7555 39.29C53.3355 39.15 52.8755 39.08 52.3755 39.08C51.8755 39.08 51.3955 39.17 50.9355 39.35C50.4955 39.51 50.1055 39.77 49.7655 40.13C49.4455 40.47 49.2455 40.92 49.1655 41.48C49.1055 41.86 49.1055 42.25 49.1655 42.65C49.2255 43.03 49.3555 43.38 49.5555 43.7C49.7755 44 50.0755 44.26 50.4555 44.48C50.8355 44.7 51.3155 44.84 51.8955 44.9C52.2955 44.94 52.6855 44.94 53.0655 44.9C53.4655 44.86 53.8255 44.76 54.1455 44.6C54.4855 44.44 54.7755 44.22 55.0155 43.94C55.2555 43.64 55.4255 43.26 55.5255 42.8L55.5555 42.56Z" fill="white"/>
<path d="M80.41 35.84C80.67 35.84 80.92 35.85 81.16 35.87C81.4 35.89 81.64 35.92 81.88 35.96C82.64 36.08 83.31 36.43 83.89 37.01C84.37 37.53 84.76 38.13 85.06 38.81C85.38 39.47 85.63 40.17 85.81 40.91C85.99 41.65 86.12 42.41 86.2 43.19C86.28 43.95 86.34 44.69 86.38 45.41C86.42 46.33 86.43 47.25 86.41 48.17C86.39 49.09 86.33 50 86.23 50.9C86.13 51.84 85.98 52.79 85.78 53.75C85.6 54.69 85.26 55.54 84.76 56.3C84.34 56.94 83.82 57.47 83.2 57.89C82.58 58.29 81.93 58.56 81.25 58.7C80.63 58.82 80 58.84 79.36 58.76C78.72 58.68 78.11 58.47 77.53 58.13C76.99 57.81 76.53 57.41 76.15 56.93C75.79 56.45 75.47 55.89 75.19 55.25C74.79 54.29 74.56 53.3 74.5 52.28C74.42 51.44 74.36 50.6 74.32 49.76C74.3 48.92 74.29 48.08 74.29 47.24C74.29 46.12 74.35 45 74.47 43.88C74.51 43.42 74.55 42.97 74.59 42.53C74.63 42.07 74.69 41.62 74.77 41.18C74.85 40.82 74.92 40.48 74.98 40.16C75.04 39.84 75.15 39.51 75.31 39.17C75.47 38.83 75.64 38.51 75.82 38.21C76.02 37.91 76.25 37.64 76.51 37.4C76.95 36.96 77.44 36.62 77.98 36.38C78.52 36.14 79.08 35.98 79.66 35.9C79.78 35.88 79.9 35.87 80.02 35.87C80.16 35.87 80.29 35.86 80.41 35.84ZM94.96 57.32C94.92 57.56 94.89 57.8 94.87 58.04C94.85 58.26 94.8 58.49 94.72 58.73C94.68 58.81 94.65 58.88 94.63 58.94C94.61 59 94.58 59.07 94.54 59.15C94.4 59.43 94.22 59.65 94 59.81C93.54 60.09 93.03 60.16 92.47 60.02C92.15 59.96 91.89 59.84 91.69 59.66C91.51 59.5 91.37 59.29 91.27 59.03C91.19 58.79 91.12 58.55 91.06 58.31C91.02 58.07 91 57.86 91 57.68C91 57.5 91 57.4 91 57.38V39.23C91 38.99 91 38.73 91 38.45C91 38.17 91.02 37.89 91.06 37.61C91.1 37.33 91.16 37.07 91.24 36.83C91.32 36.59 91.43 36.4 91.57 36.26C91.79 36.04 92.02 35.91 92.26 35.87C92.5 35.81 92.76 35.78 93.04 35.78C93.38 35.78 93.69 35.88 93.97 36.08C94.27 36.26 94.48 36.52 94.6 36.86C94.78 37.28 94.88 37.72 94.9 38.18C94.92 38.64 94.94 39.1 94.96 39.56V39.71C95 41.25 95.01 42.83 94.99 44.45C94.97 46.07 94.96 47.6 94.96 49.04V56.24C94.96 56.42 94.96 56.6 94.96 56.78C94.98 56.96 94.98 57.14 94.96 57.32ZM80.32 54.71C80.7 54.71 81.07 54.59 81.43 54.35C81.77 54.11 82.01 53.79 82.15 53.39C82.29 52.99 82.41 52.55 82.51 52.07C82.67 51.15 82.76 50.17 82.78 49.13C82.8 48.09 82.79 47.09 82.75 46.13C82.75 45.75 82.74 45.35 82.72 44.93C82.7 44.49 82.66 44.06 82.6 43.64C82.56 43.22 82.49 42.82 82.39 42.44C82.29 42.04 82.15 41.69 81.97 41.39C81.77 41.05 81.53 40.79 81.25 40.61C80.97 40.43 80.67 40.36 80.35 40.4C80.01 40.44 79.7 40.56 79.42 40.76C79.14 40.96 78.91 41.26 78.73 41.66L78.46 42.29C78.34 42.67 78.25 43.07 78.19 43.49C78.13 43.89 78.08 44.29 78.04 44.69C78 45.09 77.97 45.5 77.95 45.92C77.93 46.34 77.92 46.75 77.92 47.15C77.94 47.55 77.93 47.94 77.89 48.32C77.87 48.7 77.88 49.09 77.92 49.49C77.96 50.01 78.01 50.57 78.07 51.17C78.15 51.77 78.27 52.34 78.43 52.88C78.59 53.4 78.82 53.84 79.12 54.2C79.42 54.54 79.82 54.71 80.32 54.71ZM114.756 46.52V49.25C114.736 49.47 114.706 49.7 114.666 49.94C114.626 50.16 114.546 50.38 114.426 50.6C114.246 50.88 114.076 51.07 113.916 51.17C113.756 51.27 113.626 51.35 113.526 51.41C113.426 51.47 113.296 51.5 113.136 51.5C112.836 51.5 112.556 51.42 112.296 51.26C112.096 51.14 111.936 50.99 111.816 50.81C111.696 50.63 111.596 50.46 111.516 50.3C111.456 50.14 111.416 50 111.396 49.88C111.376 49.74 111.366 49.67 111.366 49.67V44.66H110.706C110.366 44.68 109.996 44.65 109.596 44.57C109.196 44.49 108.866 44.25 108.606 43.85C108.566 43.77 108.526 43.67 108.486 43.55V47.69C108.486 47.89 108.426 48.09 108.306 48.29C108.206 48.49 108.076 48.67 107.916 48.83C107.756 48.97 107.576 49.1 107.376 49.22C107.176 49.32 106.986 49.38 106.806 49.4C106.286 49.48 105.746 49.5 105.186 49.46C104.626 49.42 104.096 49.4 103.596 49.4C103.056 49.4 102.636 49.4 102.336 49.4C102.036 49.38 101.766 49.37 101.526 49.37C101.286 49.35 101.016 49.34 100.716 49.34C100.436 49.32 100.026 49.3 99.4863 49.28C98.8463 49.24 98.4063 48.97 98.1663 48.47C97.9263 47.97 97.8063 47.46 97.8063 46.94C97.8063 46.52 97.7963 46.02 97.7763 45.44C97.7763 44.86 97.7663 44.27 97.7463 43.67C97.7463 43.05 97.7463 42.45 97.7463 41.87C97.7463 41.27 97.7563 40.76 97.7763 40.34C97.7963 40.08 97.7963 39.85 97.7763 39.65C97.7763 39.45 97.7863 39.25 97.8063 39.05C97.8263 38.85 97.8563 38.66 97.8963 38.48C97.9563 38.28 98.0463 38.07 98.1663 37.85C98.3063 37.59 98.5063 37.38 98.7663 37.22C99.0263 37.06 99.2963 36.97 99.5763 36.95C99.8563 36.91 100.126 36.94 100.386 37.04C100.666 37.14 100.886 37.32 101.046 37.58C101.366 38.12 101.526 38.6 101.526 39.02C101.546 39.42 101.546 39.94 101.526 40.58C101.706 40.58 101.916 40.58 102.156 40.58C102.396 40.58 102.616 40.58 102.816 40.58C103.036 40.58 103.226 40.58 103.386 40.58C103.546 40.58 103.636 40.58 103.656 40.58H104.046H105.096C105.116 40.36 105.126 40.19 105.126 40.07C105.126 39.93 105.126 39.81 105.126 39.71C105.126 39.61 105.116 39.5 105.096 39.38C105.096 39.26 105.096 39.11 105.096 38.93C105.096 38.59 105.146 38.22 105.246 37.82C105.366 37.42 105.576 37.12 105.876 36.92C106.096 36.76 106.396 36.68 106.776 36.68C107.156 36.66 107.456 36.73 107.676 36.89C107.896 37.05 108.056 37.28 108.156 37.58C108.276 37.88 108.356 38.18 108.396 38.48C108.456 38.84 108.486 39.22 108.486 39.62V42.5C108.486 42.44 108.496 42.39 108.516 42.35C108.576 42.13 108.686 41.95 108.846 41.81C109.006 41.65 109.286 41.53 109.686 41.45C109.786 41.41 110.006 41.39 110.346 41.39C110.706 41.37 111.046 41.35 111.366 41.33V38.27C111.346 38.17 111.356 37.95 111.396 37.61C111.436 37.25 111.506 36.95 111.606 36.71C111.826 36.29 112.236 36.05 112.836 35.99C113.456 35.91 113.926 36.06 114.246 36.44C114.386 36.6 114.476 36.76 114.516 36.92C114.556 37.06 114.606 37.21 114.666 37.37C114.726 37.57 114.746 37.78 114.726 38C114.726 38.22 114.726 38.44 114.726 38.66L114.756 46.52ZM119.706 57.53C119.806 58.29 119.676 58.88 119.316 59.3C119.076 59.58 118.816 59.75 118.536 59.81C118.256 59.87 118.106 59.9 118.086 59.9H103.086C102.266 59.9 101.556 59.77 100.956 59.51C100.356 59.27 100.056 58.92 100.056 58.46V53.9C100.016 53.46 100.016 53.01 100.056 52.55C100.096 52.13 100.256 51.79 100.536 51.53C100.836 51.27 101.216 51.14 101.676 51.14C101.776 51.14 101.956 51.15 102.216 51.17C102.476 51.19 102.656 51.22 102.756 51.26C103.016 51.34 103.216 51.46 103.356 51.62C103.516 51.76 103.636 51.94 103.716 52.16C103.796 52.36 103.846 52.58 103.866 52.82C103.886 53.04 103.906 53.26 103.926 53.48C103.926 53.58 103.926 53.77 103.926 54.05C103.946 54.33 103.956 54.63 103.956 54.95C103.976 55.25 103.986 55.54 103.986 55.82C104.006 56.1 104.026 56.27 104.046 56.33C104.106 56.35 104.266 56.38 104.526 56.42C104.806 56.44 105.316 56.45 106.056 56.45C106.696 56.45 107.086 56.44 107.226 56.42C107.386 56.4 107.476 56.39 107.496 56.39H118.356C118.356 56.39 118.416 56.41 118.536 56.45C118.676 56.49 118.826 56.56 118.986 56.66C119.146 56.74 119.296 56.86 119.436 57.02C119.576 57.16 119.666 57.33 119.706 57.53ZM116.106 38.54C116.106 38.32 116.106 38.1 116.106 37.88C116.106 37.66 116.136 37.45 116.196 37.25C116.316 36.91 116.496 36.61 116.736 36.35C116.896 36.15 117.086 36.01 117.306 35.93C117.526 35.85 117.806 35.83 118.146 35.87C118.686 35.95 119.056 36.21 119.256 36.65C119.376 36.89 119.446 37.18 119.466 37.52C119.486 37.84 119.486 38.05 119.466 38.15V49.7C119.466 49.72 119.456 49.79 119.436 49.91C119.436 50.03 119.406 50.18 119.346 50.36C119.306 50.52 119.226 50.69 119.106 50.87C119.006 51.05 118.856 51.2 118.656 51.32C118.516 51.4 118.396 51.46 118.296 51.5C118.216 51.52 118.096 51.53 117.936 51.53C117.616 51.53 117.286 51.43 116.946 51.23C116.846 51.15 116.756 51.06 116.676 50.96C116.596 50.86 116.516 50.75 116.436 50.63C116.136 50.07 115.996 49.46 116.016 48.8C116.056 48.12 116.076 47.47 116.076 46.85C116.076 46.83 116.076 46.62 116.076 46.22C116.076 45.8 116.076 45.29 116.076 44.69C116.076 44.09 116.076 43.44 116.076 42.74C116.076 42.02 116.076 41.36 116.076 40.76C116.076 40.16 116.076 39.65 116.076 39.23C116.096 38.81 116.106 38.58 116.106 38.54ZM103.836 43.34C103.816 43.34 103.726 43.34 103.566 43.34C103.426 43.34 103.236 43.34 102.996 43.34C102.776 43.34 102.536 43.34 102.276 43.34C102.016 43.34 101.766 43.34 101.526 43.34V45.32C101.526 45.54 101.536 45.69 101.556 45.77C101.576 45.85 101.696 45.9 101.916 45.92C102.036 45.92 102.236 45.92 102.516 45.92C102.796 45.92 103.096 45.92 103.416 45.92C103.756 45.92 104.076 45.92 104.376 45.92C104.696 45.92 104.936 45.92 105.096 45.92C105.076 45.82 105.066 45.64 105.066 45.38C105.086 45.1 105.096 44.81 105.096 44.51V43.34H103.836ZM140.829 48.35C141.089 48.53 141.269 48.76 141.369 49.04C141.489 49.3 141.539 49.57 141.519 49.85C141.499 50.13 141.409 50.4 141.249 50.66C141.109 50.9 140.899 51.09 140.619 51.23C140.179 51.47 139.719 51.63 139.239 51.71C138.759 51.79 138.289 51.83 137.829 51.83H136.599C136.419 51.83 136.089 51.83 135.609 51.83C135.129 51.83 134.579 51.83 133.959 51.83C133.339 51.83 132.679 51.83 131.979 51.83C131.299 51.83 130.649 51.83 130.029 51.83C129.409 51.83 128.859 51.83 128.379 51.83C127.899 51.83 127.569 51.83 127.389 51.83H126.849C126.529 51.83 126.179 51.82 125.799 51.8C125.419 51.78 125.049 51.73 124.689 51.65C124.329 51.57 123.989 51.46 123.669 51.32C123.349 51.16 123.079 50.95 122.859 50.69C122.659 50.45 122.509 50.16 122.409 49.82C122.309 49.46 122.239 49.11 122.199 48.77C122.179 48.41 122.169 48.11 122.169 47.87C122.169 47.61 122.169 47.46 122.169 47.42V39.44C122.169 39.42 122.169 39.33 122.169 39.17C122.169 39.01 122.179 38.84 122.199 38.66C122.219 38.46 122.249 38.27 122.289 38.09C122.329 37.89 122.379 37.73 122.439 37.61C122.619 37.33 122.799 37.12 122.979 36.98C123.159 36.84 123.399 36.75 123.699 36.71C123.779 36.69 123.869 36.68 123.969 36.68C124.089 36.68 124.209 36.67 124.329 36.65C124.449 36.65 124.589 36.64 124.749 36.62H137.349H137.709C137.809 36.62 137.909 36.63 138.009 36.65C138.129 36.65 138.239 36.64 138.339 36.62H138.399C138.579 36.62 138.759 36.63 138.939 36.65C139.139 36.67 139.329 36.71 139.509 36.77C139.689 36.81 139.869 36.86 140.049 36.92C140.229 36.98 140.389 37.09 140.529 37.25C140.629 37.39 140.719 37.55 140.799 37.73C140.879 37.89 140.939 38.06 140.979 38.24C141.039 38.5 141.049 38.8 141.009 39.14C140.949 39.56 140.729 39.93 140.349 40.25C139.969 40.55 139.559 40.7 139.119 40.7H126.279V42.23V42.5C126.439 42.5 126.679 42.51 126.999 42.53C127.319 42.53 127.679 42.53 128.079 42.53C128.499 42.53 128.939 42.53 129.399 42.53C129.879 42.53 130.359 42.53 130.839 42.53C131.939 42.53 133.139 42.52 134.439 42.5H137.349C137.449 42.5 137.549 42.51 137.649 42.53C137.749 42.53 137.849 42.52 137.949 42.5H138.759C138.979 42.5 139.199 42.52 139.419 42.56C139.659 42.6 139.879 42.68 140.079 42.8C140.379 42.98 140.569 43.25 140.649 43.61C140.729 43.95 140.749 44.28 140.709 44.6C140.709 45 140.539 45.33 140.199 45.59C139.879 45.83 139.489 45.95 139.029 45.95H135.429C134.209 45.97 133.079 45.98 132.039 45.98H127.869C127.609 45.98 127.349 45.98 127.089 45.98C126.829 45.98 126.559 45.97 126.279 45.95C126.299 46.35 126.309 46.59 126.309 46.67C126.309 46.75 126.309 46.77 126.309 46.73C126.309 46.67 126.299 46.59 126.279 46.49C126.279 46.37 126.279 46.31 126.279 46.31V47.54C126.279 47.68 126.279 47.77 126.279 47.81C126.299 47.85 126.319 47.87 126.339 47.87C126.359 47.85 126.379 47.83 126.399 47.81C126.419 47.79 126.439 47.78 126.459 47.78C126.599 47.86 126.819 47.92 127.119 47.96C127.439 48 127.799 48.02 128.199 48.02H128.319C128.419 48.02 128.669 48.02 129.069 48.02C129.489 48 129.969 47.99 130.509 47.99C131.049 47.99 131.629 47.99 132.249 47.99C132.869 47.99 133.449 47.99 133.989 47.99C134.529 47.99 134.999 48 135.399 48.02C135.799 48.02 136.059 48.02 136.179 48.02C136.579 48.02 136.899 48.02 137.139 48.02C137.379 48.02 137.579 48.02 137.739 48.02C137.899 48.02 138.039 48.02 138.159 48.02C138.279 48 138.419 47.99 138.579 47.99C138.899 47.99 139.219 48 139.539 48.02C139.859 48.04 140.179 48.1 140.499 48.2C140.559 48.22 140.609 48.24 140.649 48.26C140.709 48.28 140.769 48.31 140.829 48.35ZM123.189 58.22C122.869 58.2 122.549 58.16 122.229 58.1C121.929 58.02 121.659 57.92 121.419 57.8C121.179 57.66 120.979 57.47 120.819 57.23C120.679 56.99 120.609 56.67 120.609 56.27C120.609 55.87 120.739 55.52 120.999 55.22C121.159 55.06 121.359 54.94 121.599 54.86C121.839 54.78 122.069 54.72 122.289 54.68C122.509 54.64 122.699 54.62 122.859 54.62C123.039 54.62 123.139 54.62 123.159 54.62L139.869 54.65C140.389 54.65 140.859 54.66 141.279 54.68C141.719 54.68 142.109 54.82 142.449 55.1C142.869 55.48 143.079 55.91 143.079 56.39C143.079 56.69 142.989 56.97 142.809 57.23C142.629 57.47 142.389 57.64 142.089 57.74C141.689 57.9 141.269 58.01 140.829 58.07C140.409 58.13 139.989 58.17 139.569 58.19C138.109 58.25 136.669 58.27 135.249 58.25C133.829 58.23 132.449 58.22 131.109 58.22C130.389 58.22 129.649 58.23 128.889 58.25C128.149 58.25 127.429 58.25 126.729 58.25C126.049 58.25 125.399 58.25 124.779 58.25C124.159 58.25 123.629 58.24 123.189 58.22Z" fill="white"/>
<path d="M5.264 86.832H7.6V85.12H5.264V83.12H3.264V85.12H0.912V86.832H3.264V87.072C3.264 89.344 2.512 91.76 0.416 92.976L1.6 94.56C2.928 93.808 3.792 92.512 4.288 90.976C4.816 92.368 5.664 93.536 6.976 94.224L8.096 92.656C6.016 91.552 5.264 89.296 5.264 87.072V86.832ZM11.44 82.624V88.272H10.24V82.864H8.272V96.704H10.24V90H11.44V97.36H13.44V82.624H11.44ZM22.4788 90.496V92.128H25.3268V93.728H27.4388V82.64H25.3268V90.496H22.4788ZM18.9428 95.44V92.832H20.7828V89.664C22.0148 89.552 23.2468 89.424 24.4468 89.2L24.3028 87.712C23.8548 87.776 23.3908 87.84 22.9268 87.888C23.1828 86.032 23.1828 84.672 23.1828 83.888V83.376H16.1588V85.056H21.0868C21.0548 85.824 20.9748 86.816 20.7988 88.048C18.6548 88.176 16.5428 88.192 14.8148 88.192L15.0708 89.872C16.1588 89.872 17.3908 89.856 18.6868 89.792V92.624H16.8308V97.12H27.7588V95.44H18.9428ZM36.3458 87.504H42.6498V89.568H36.3458V87.504ZM40.5538 93.952V91.248H44.7298V83.552H42.6498V85.84H36.3458V83.552H34.2498V91.248H38.4418V93.952H32.8418V95.664H46.1858V93.952H40.5538ZM55.7365 83.936H52.4725V82.528H50.3605V83.936H47.1125V85.584H55.7365V83.936ZM49.9125 88.72C49.9125 88.016 50.5365 87.632 51.4325 87.632C52.3285 87.632 52.9525 88.016 52.9525 88.72C52.9525 89.44 52.3285 89.824 51.4325 89.824C50.5365 89.824 49.9125 89.44 49.9125 88.72ZM54.9685 88.72C54.9685 87.152 53.4965 86.08 51.4325 86.08C49.3685 86.08 47.8965 87.152 47.8965 88.72C47.8965 90.288 49.3685 91.376 51.4325 91.376C53.4965 91.376 54.9685 90.288 54.9685 88.72ZM51.6725 93.824H57.3365V95.552H51.6725V93.824ZM49.5925 97.2H59.4005V92.16H49.5925V97.2ZM57.2885 82.64V86.944H55.4485V88.656H57.2885V91.536H59.4005V82.64H57.2885ZM66.7752 91.776H69.3512V94.032H66.7752V91.776ZM71.4312 94.032V91.776H73.4952V90.096H64.9512V88.48H73.1592V83.584H62.8392V85.264H71.0792V86.832H62.8552V91.776H64.6952V94.032H61.3032V95.76H74.6632V94.032H71.4312ZM80.294 83.616C77.99 83.616 76.246 85.136 76.246 87.248C76.246 89.376 77.99 90.88 80.294 90.88C82.598 90.88 84.358 89.376 84.358 87.248C84.358 85.136 82.598 83.616 80.294 83.616ZM80.294 85.424C81.43 85.424 82.294 86.096 82.294 87.248C82.294 88.4 81.43 89.072 80.294 89.072C79.158 89.072 78.294 88.4 78.294 87.248C78.294 86.096 79.158 85.424 80.294 85.424ZM85.734 82.624V97.408H87.846V82.624H85.734ZM75.894 94.416C78.438 94.416 81.894 94.384 85.062 93.744L84.934 92.224C81.83 92.688 78.214 92.704 75.622 92.704L75.894 94.416ZM99.393 96H96.977V89.392C96.977 89.2107 96.977 88.9867 96.977 88.72C96.9877 88.4533 96.9983 88.176 97.009 87.888C97.0197 87.6 97.0303 87.344 97.041 87.12C96.9877 87.184 96.8703 87.3013 96.689 87.472C96.5183 87.632 96.3583 87.776 96.209 87.904L94.897 88.96L93.729 87.504L97.409 84.576H99.393V96ZM104.645 84.416C105.541 84.416 106.219 84.7307 106.677 85.36C107.147 85.9787 107.381 86.8533 107.381 87.984C107.381 89.1147 107.163 90 106.725 90.64C106.288 91.2693 105.595 91.584 104.645 91.584C104.059 91.584 103.563 91.44 103.157 91.152C102.763 90.864 102.464 90.4533 102.261 89.92C102.059 89.376 101.957 88.7307 101.957 87.984C101.957 86.8533 102.171 85.9787 102.597 85.36C103.024 84.7307 103.707 84.416 104.645 84.416ZM104.661 86.048C104.405 86.048 104.219 86.208 104.101 86.528C103.984 86.848 103.925 87.3387 103.925 88C103.925 88.6507 103.984 89.1413 104.101 89.472C104.219 89.8027 104.405 89.968 104.661 89.968C104.917 89.968 105.104 89.8027 105.221 89.472C105.349 89.1413 105.413 88.6507 105.413 88C105.413 87.3387 105.349 86.848 105.221 86.528C105.104 86.208 104.917 86.048 104.661 86.048ZM112.757 84.576L106.421 96H104.549L110.885 84.576H112.757ZM112.645 88.976C113.243 88.976 113.744 89.12 114.149 89.408C114.555 89.6853 114.859 90.0907 115.061 90.624C115.275 91.1467 115.381 91.7867 115.381 92.544C115.381 93.6747 115.163 94.56 114.725 95.2C114.288 95.8293 113.595 96.144 112.645 96.144C112.059 96.144 111.563 96 111.157 95.712C110.763 95.424 110.464 95.0133 110.261 94.48C110.059 93.936 109.957 93.2907 109.957 92.544C109.957 91.4133 110.171 90.5387 110.597 89.92C111.024 89.2907 111.707 88.976 112.645 88.976ZM112.661 90.608C112.405 90.608 112.219 90.768 112.101 91.088C111.984 91.408 111.925 91.8987 111.925 92.56C111.925 93.2107 111.984 93.7013 112.101 94.032C112.219 94.3627 112.405 94.528 112.661 94.528C112.917 94.528 113.104 94.368 113.221 94.048C113.349 93.7173 113.413 93.2213 113.413 92.56C113.413 91.8987 113.349 91.408 113.221 91.088C113.104 90.768 112.917 90.608 112.661 90.608ZM129.863 82.624V97.408H131.975V82.624H129.863ZM124.055 83.664C121.831 83.664 120.183 85.68 120.183 88.912C120.183 92.16 121.831 94.192 124.055 94.192C126.279 94.192 127.927 92.16 127.927 88.912C127.927 85.68 126.279 83.664 124.055 83.664ZM124.055 85.568C125.143 85.568 125.895 86.736 125.895 88.912C125.895 91.104 125.143 92.272 124.055 92.272C122.967 92.272 122.215 91.104 122.215 88.912C122.215 86.736 122.967 85.568 124.055 85.568ZM136.694 84.272H134.582V93.792H135.606C137.078 93.792 138.774 93.712 140.694 93.36L140.518 91.584C139.11 91.84 137.846 91.936 136.694 91.968V84.272ZM144.614 82.624V88.304H143.286V82.896H141.318V96.672H143.286V90.016H144.614V97.36H146.63V82.624H144.614ZM157.877 85.04H149.909V88.56H160.213V87.136H151.989V86.368H159.957V82.896H149.877V84.32H157.877V85.04ZM151.861 95.024H160.005V91.52H149.749V92.944H157.909V93.696H149.765V97.248H160.405V95.824H151.861V95.024ZM148.245 89.264V90.784H161.589V89.264H148.245ZM6.384 107.792H9.424V106.048H1.168V107.792H4.24V108.608C4.24 111.12 3.04 113.824 0.576 114.928L1.776 116.608C3.504 115.824 4.688 114.208 5.344 112.288C6 114.064 7.168 115.504 8.88 116.24L10.032 114.576C7.568 113.552 6.384 111.008 6.384 108.608V107.792ZM10.784 104.64V119.376H12.896V104.64H10.784ZM22.4468 113.2V114.64H25.2148V115.808H27.3268V104.64H25.2148V113.2H22.4468ZM19.6148 106.672C20.5908 106.672 21.2788 107.056 21.2788 107.776C21.2788 108.496 20.5908 108.864 19.6148 108.864C18.6228 108.864 17.9348 108.496 17.9348 107.776C17.9348 107.056 18.6228 106.672 19.6148 106.672ZM19.6148 110.4C21.7588 110.4 23.2788 109.344 23.2788 107.776C23.2788 106.208 21.7588 105.136 19.6148 105.136C17.4548 105.136 15.9508 106.208 15.9508 107.776C15.9508 109.344 17.4548 110.4 19.6148 110.4ZM18.8308 117.44V115.424H20.8628V112.64C22.0468 112.544 23.2308 112.416 24.3828 112.224L24.2388 110.72C21.1348 111.12 17.5508 111.152 14.8628 111.168L15.1348 112.848C16.2388 112.848 17.4708 112.832 18.7668 112.768V114.736H16.7188V119.12H27.6468V117.44H18.8308ZM32.7015 114.448C31.9015 114.448 31.3255 113.808 31.3255 112.704C31.3255 111.6 31.9015 110.944 32.7015 110.944C33.5015 110.944 34.0775 111.6 34.0775 112.704C34.0775 113.808 33.5015 114.448 32.7015 114.448ZM32.7015 109.184C30.8135 109.184 29.4695 110.64 29.4695 112.704C29.4695 114.752 30.8135 116.208 32.7015 116.208C34.5895 116.208 35.9335 114.752 35.9335 112.704C35.9335 110.64 34.5895 109.184 32.7015 109.184ZM33.7415 105.04H31.6615V106.864H29.1495V108.544H36.1895V106.864H33.7415V105.04ZM39.8055 104.624V110.64H38.6855V104.912H36.7175V118.752H38.6855V112.336H39.8055V119.36H41.8055V104.624H39.8055ZM55.3243 111.44H47.0683V107.568H55.2123V105.856H44.9563V113.12H55.3243V111.44ZM43.4043 115.888V117.616H56.7483V115.888H43.4043ZM66.539 110.512C64.619 110.832 62.907 110.896 60.475 110.912V109.696H65.163V105.312H58.379V106.992H63.083V108.128H58.395V112.608H59.691C62.619 112.608 64.587 112.56 66.779 112.192L66.539 110.512ZM67.787 117.52H62.171V116.336H67.787V117.52ZM67.787 114.72H62.171V113.472H60.075V119.2H69.883V113.472H67.787V114.72ZM67.755 104.64V112.864H69.883V104.64H67.755ZM74.7457 106.032H72.6497V115.744H73.9617C76.2017 115.744 78.6497 115.584 81.1617 115.056L80.9377 113.296C78.7777 113.728 76.6817 113.888 74.7457 113.936V106.032ZM82.0737 104.624V119.36H84.1857V104.624H82.0737ZM88.7925 107.712H93.5605V106H86.6965V115.872H87.9445C90.5045 115.872 92.5205 115.792 94.7445 115.392L94.5365 113.648C92.6325 113.968 90.8885 114.08 88.7925 114.112V107.712ZM99.8005 110.08H97.6565V104.64H95.5445V119.408H97.6565V111.824H99.8005V110.08Z" fill="white"/>
</svg>
